<svg viewBox="36.599999999999994 44.4 226.80000000000004 218.7" xmlns="http://www.w3.org/2000/svg" overflow="visible" xmlns:xlink="http://www.w3.org/1999/xlink" width="210.00000000000003px" height="202.5px"><rect id="Blush Background Color" fill="#8c52ff" x="36.599999999999994" y="44.4" width="226.80000000000004" height="218.7"/><g id="Master/Spot Illustrations/Working from Home" stroke="none" stroke-width="1" fill="none" fill-rule="evenodd"><g id="Desk" transform="translate(27.000000, 21.000000)"><g id="Texture Backgrounds" opacity=".5" transform="scale(1 1)"><g id="Texture Backgrounds/Abstract 1" stroke="none" stroke-width="1" fill="none" fill-rule="evenodd"><path d="M184.617192,117.461967 C174.482118,107.177847 153.45464,111.841576 137.647324,127.877431 C121.843872,143.917208 117.247733,165.253914 127.382808,175.538033 C137.517882,185.822153 158.54536,181.158424 174.352676,165.122569 C190.156128,149.082792 194.752267,127.746086 184.617192,117.461967" id="Fill-38" fill="#CDEAFA"/><path d="M190.120348,52.5022327 C206.608009,78.4850917 187.231913,120.592037 146.850802,146.547208 C106.467725,172.504357 60.3647612,172.480625 43.8790659,146.497766 C27.3933705,120.514907 46.7655362,78.4099395 87.1505775,52.4527905 C127.531689,26.4976192 173.634653,26.5173961 190.120348,52.5022327" id="Fill-10" fill="#DFECFB"/></g></g><g transform="translate(44.000000, 116.000000)"><polygon id="Fill-3" fill="#8F8F8F" points="6.83888328 102 0 102 27.1611167 3 34 3"/><polygon id="Fill-5" fill="#8F8F8F" points="53.1611167 102 60 102 32.8388833 3 26 3"/><polygon id="Fill-7" fill="#8F8F8F" points="11 80 50 80 50 75 11 75"/><polygon id="Fill-9" fill="#8F8F8F" points="128.838883 102 122 102 149.161117 3 156 3"/><polygon id="Fill-10" fill="#8F8F8F" points="176.161117 102 183 102 155.838883 3 149 3"/><polygon id="Fill-11" fill="#8F8F8F" points="133 80 172 80 172 75 133 75"/><polygon id="Fill-12" fill="#E2C1A1" points="175.351108 6 7.6488917 6 5 0 178 0"/></g><g id="Laptop" transform="translate(133.000000, 97.500000) scale(-1, 1) translate(-133.000000, -97.500000) translate(92.000000, 77.000000)"><path d="M61.8652561,39.1933374 L14.0452561,40.2253374 C12.4392561,40.2593374 11.0022561,39.2343374 10.5122561,37.7043374 L0.175256138,5.36733741 C-0.567743862,3.04733741 1.14325614,0.671337414 3.57925614,0.637337414 L50.1912561,-2.20268248e-13 C51.7362561,-0.020662586 53.1262561,0.940337414 53.6512561,2.39333741 L65.1972561,34.3363374 C66.0412561,36.6683374 64.3452561,39.1393374 61.8652561,39.1933374" id="Fill-21" fill="#BFBAB4"/><path d="M63.4931561,35.4980374 L13.0741561,36.3331282 C12.7581561,36.3380374 12.4761561,36.1360374 12.3801561,35.8350374 L2.38615614,4.68703741 C2.27315614,4.33903741 2.52715614,3.98003741 2.89215614,3.97103741 L51.3281561,2.61503741 L63.4931561,35.4980374 Z" id="Fill-22" fill="#101010"/><path d="M28.2998561,1.89643741 C28.2998561,2.11643741 28.1208561,2.29343741 27.9018561,2.29343741 C27.6818561,2.29343741 27.5038561,2.11643741 27.5038561,1.89643741 C27.5038561,1.67643741 27.6818561,1.49843741 27.9018561,1.49843741 C28.1208561,1.49843741 28.2998561,1.67643741 28.2998561,1.89643741" id="Fill-23" fill="#101010"/><path d="M79.1035561,39.2861374 L15.6915561,40.1851374 C14.1055561,40.2081374 12.8075561,38.9291374 12.8075561,37.3431374 L12.8075561,37.3051374 L81.3255561,36.3331374 L81.3255561,37.0341374 C81.3255561,38.2651374 80.3355561,39.2691374 79.1035561,39.2861374" id="Fill-24" fill="#807A74"/></g><g id="Small Plant" transform="translate(189.000000, 79.000000) scale(-1, 1) translate(-189.000000, -79.000000) translate(167.000000, 41.000000) scale(1 1)"><g id="Small Plant/Small Vase 3" stroke="none" stroke-width="1" fill="none" fill-rule="evenodd"><g id="Group-27-Copy" transform="translate(6.000000, 13.000000)"><path d="M17.789245,36.4928066 C17.8196593,34.1804031 17.4636996,31.8757463 16.7010897,29.7182777 C15.9452386,27.5668958 14.8469452,25.5079215 13.2789201,23.8069575 C11.7266655,22.0999068 9.79592201,20.7292862 7.68494579,19.728296 C5.58072829,18.7051723 3.31317485,18.0068585 1,17.5542272 L1.01013809,17.5 C3.340773,17.8801439 5.64212008,18.5092903 7.80547645,19.4781868 C9.96770636,20.4415499 11.9733591,21.7911437 13.6117875,23.5087078 C15.2654231,25.2085651 16.525926,27.2957597 17.2372822,29.5467426 C17.9238563,31.7993855 18.1998378,34.1881498 17.8450045,36.5 L17.789245,36.4928066 Z" id="Fill-32" fill="#B4A4A1"/><path d="M18.0685106,41.5 C17.4473709,38.2204545 17.1749597,34.8792002 17.0398141,31.5385069 C16.9189781,28.1938867 17.0816828,24.8425345 17.412922,21.5164269 C17.5872863,19.8530926 17.8146489,18.1970512 18.1003096,16.5516686 C18.3970999,14.9085299 18.7611981,13.279416 19.1904841,11.6699367 C19.6425594,10.0671893 20.1709521,8.48912543 20.7809623,6.94752589 C21.4137617,5.41602417 22.1350682,3.92659666 22.9544215,2.5 L23,2.52917146 C22.2119157,3.97259781 21.525058,5.47268412 20.9282975,7.0120397 C20.3532662,8.56093211 19.8614422,10.1423619 19.4459358,11.7456703 C19.0442088,13.3529056 18.7087298,14.9786536 18.4389686,16.6161824 C18.1819269,18.2559551 17.9815935,19.9058257 17.8347882,21.5607451 C17.5623771,24.8739499 17.5189185,28.2006185 17.5697969,31.5239212 C17.6090156,34.8494678 17.8008693,38.1733314 18.1209789,41.4904632 L18.0685106,41.5 Z" id="Fill-33" fill="#B4A4A1"/><path d="M16.710834,36.4923331 C16.9786964,33.8669737 16.8489074,31.2103992 16.4722432,28.6080404 C16.0917129,26.0029435 15.4107348,23.4433003 14.4204724,21.0107082 C13.9129145,19.7993409 13.3313493,18.620284 12.6763291,17.4844902 C12.0025309,16.3596491 11.291729,15.2567134 10.4936647,14.2134699 C8.92625538,12.105625 7.03685889,10.2475014 5,8.54435839 L5.03258532,8.5 C7.26495616,9.95615991 9.25597467,11.7934734 10.9321858,13.8805081 C11.76394,14.9303233 12.4946245,16.055712 13.1529585,17.2188875 C13.7903053,18.394111 14.3492265,19.6076688 14.8313788,20.8502513 C15.7851899,23.3381545 16.4175661,25.9388703 16.7461808,28.5713489 C17.0527038,31.2054705 17.1079331,33.8729977 16.7655111,36.5 L16.710834,36.4923331 Z" id="Fill-34" fill="#B4A4A1"/><path d="M18.103841,37.5 C17.8978891,35.1050639 18.0212275,32.6955486 18.2731403,30.303977 C18.5489063,27.9129661 19.0800758,25.5494317 19.8131246,23.2481398 C20.1732494,22.0958117 20.5985341,20.9614273 21.0971236,19.8573231 C21.5910589,18.7515367 22.1536448,17.6721052 22.8209519,16.653234 C24.1334584,14.6070805 25.8665952,12.7925141 27.9680018,11.5 L28,11.5471025 C25.9497904,12.8979339 24.299267,14.7416589 23.0699558,16.7984666 C22.4358104,17.8178985 21.906968,18.8962085 21.4456127,19.9980697 C20.9801849,21.0982488 20.5880619,22.2275864 20.2605171,23.3743072 C19.5949553,25.6660664 19.1981781,28.0189467 18.8502708,30.3735092 C18.4971275,32.7303147 18.2894303,35.1078677 18.1620194,37.4983178 L18.103841,37.5 Z" id="Fill-35" fill="#B4A4A1"/><path d="M17.5661537,38.5 C17.0782843,35.6299693 16.9617188,32.7099517 17.0100509,29.7989206 C17.0834019,26.8856428 17.4552743,23.9785432 18.0989434,21.1326634 C18.4116801,19.7083194 18.8153949,18.3019482 19.3106562,16.927591 C19.8019372,15.5532339 20.3864706,14.2069592 21.110314,12.9342606 C21.8381377,11.6677402 22.6535277,10.4405353 23.6457562,9.35935937 C24.6311612,8.27537516 25.7462099,7.31046073 26.9681577,6.5 L27,6.54661694 C25.8030712,7.38516016 24.7227078,8.37141729 23.7753998,9.47000439 C22.8201311,10.5646599 22.0462498,11.7991663 21.361072,13.068495 C20.6702081,14.3378236 20.1186542,15.6790434 19.6609213,17.0466608 C19.1975023,18.4131549 18.8256299,19.8111014 18.5447354,21.2258973 C17.9670253,24.0554892 17.7247965,26.9384379 17.5786632,29.81914 C17.4274123,32.7032119 17.4598232,35.5979552 17.6230149,38.4926986 L17.5661537,38.5 Z" id="Fill-36" fill="#B4A4A1"/><path d="M1,17.9383961 C1,17.9383961 0.836583463,18.5 0.73673947,18.5 C0.63650546,18.5 0.0994539782,18.1806947 0.0678627145,18.104077 C0.0362714509,18.0274593 0,17.6183129 0,17.5238048 C0,17.4289077 0.0417316693,17.6498156 0.310062402,17.6284249 C0.578783151,17.6074231 1,17.9383961 1,17.9383961" id="Fill-37" fill="#ECC9C0"/><path d="M3.07077557,17.5671157 C3.07077557,17.5671157 2.91153054,19.2719302 3.07077557,19.3492928 C3.2300206,19.4252358 3.63845461,19.0235185 3.89649054,19.3492928 C4.15526371,19.6750671 4.39265676,19.3982654 4.41772311,19.2151504 C4.44352671,19.0327452 4.7723382,19.1484341 4.8711291,19.0235185 C4.97139449,18.8986028 4.73252694,18.8127233 4.82173365,18.6594178 C4.9116776,18.5061122 5.051017,18.3286752 4.98097868,18.2349885 C4.9116776,18.1420115 4.79224383,18.0653587 4.76201676,17.89289 C4.73252694,17.7204212 4.08596263,17.6437684 3.8861691,17.6629316 C3.68785006,17.6820948 3.61781174,17.366257 3.07077557,17.5671157" id="Fill-38" fill="#ECC9C0"/><path d="M5.74112816,16.8502273 C5.74112816,16.8502273 5.67073076,16.6712323 5.54688349,16.6626458 C5.42433987,16.6533988 5.39826676,16.4757248 5.31874377,16.5028052 C5.23922079,16.5292252 5.12515093,16.8231469 5.05475353,16.8502273 C4.98435613,16.8766473 5.00195548,17.5721519 5.00195548,18.0265747 C5.00195548,18.481658 5.14275028,18.4367441 5.42433987,18.4367441 C5.70527763,18.4367441 5.73200257,18.3409719 5.96991971,18.4374046 C6.20718501,18.5351584 6.49724836,18.5259114 6.72603991,18.3561633 C6.95483145,18.1870758 7.0076295,17.7663384 6.99915574,17.4994971 C6.99003015,17.2333163 6.69996679,17.9017405 6.70844056,17.4294843 C6.71756614,16.9565675 6.65564251,16.8323939 6.559172,16.8053134 C6.46204966,16.7788935 6.20718501,16.6448124 6.1811119,16.6448124 C6.15438696,16.6448124 6.12831385,17.0193149 6.06639021,16.9928949 C6.00446658,16.9658145 5.74112816,16.8502273 5.74112816,16.8502273" id="Fill-39" fill="#ECC9C0"/><path d="M7.26501731,18.5073909 C7.02775918,18.580686 6.99726327,18.6608221 7.00763188,18.8362418 C7.01922032,19.0111728 7.0387377,19.552091 7.00580213,19.7123631 C6.97347647,19.8731237 7.0826518,19.9317598 7.17413951,19.9899073 C7.26501731,20.0480548 7.21012468,20.12135 7.32844879,20.1799861 C7.44738281,20.2381335 7.58400446,20.136009 7.7303848,20.3915647 C7.8755453,20.6471204 8.04876203,20.3842352 8.3043177,20.2821106 C8.55926346,20.1799861 9.08806243,20.0192254 8.98742594,19.7343516 C8.88739938,19.4499664 8.48668321,19.7196926 8.48668321,19.3546828 C8.48668321,18.9891843 8.24088622,18.8802189 8.05852072,18.9022074 C7.8755453,18.9241959 7.50227544,18.4345844 7.26501731,18.5073909" id="Fill-40" fill="#ECC9C0"/><path d="M5.21401678,19.5 C5.21401678,19.5 5.46594646,19.5789154 5.46594646,19.718178 C5.46594646,19.8581036 5.41910883,19.8753457 5.66252258,19.8494826 C5.90593633,19.8229564 5.94212904,19.6923149 6.10180279,19.7705672 C6.26076687,19.8494826 6.60637181,19.9980293 6.64398385,20.146576 C6.68088622,20.2944595 6.63191961,20.6353211 6.81501216,20.6180791 C6.99881438,20.6001739 7.02720082,20.6525632 6.97965353,20.9410355 C6.93352556,21.2288447 6.69011181,21.1419715 6.55030858,21.1684977 C6.41050535,21.1943607 6.04573956,21.4563069 5.8498731,21.1684977 C5.8498731,21.1684977 5.83071226,21.5173171 5.60645936,21.4821699 C5.3814968,21.4476859 5.20408153,21.6307166 5.21401678,21.2818971 C5.22324238,20.9324145 4.72789895,19.5351472 5.21401678,19.5" id="Fill-41" fill="#ECC9C0"/><path d="M9.00639957,22.6366218 C9.00639957,22.6366218 8.97062383,22.5064448 9.07079591,22.5002261 C9.17049098,22.4940075 9.29165149,22.6179659 9.29165149,22.6366218 C9.29165149,22.6552778 9.31311694,22.7357057 9.33410538,22.7357057 C9.35557082,22.7357057 9.32742724,22.6055286 9.39850171,22.6179659 C9.4700532,22.6304032 9.62651245,22.6983938 9.70521909,22.6677151 C9.78392572,22.6366218 9.66992035,22.7730176 9.86263236,22.7357057 C10.0548673,22.6983938 9.99810317,23.2132979 9.96948258,23.2443912 C9.94086198,23.2750699 9.87646564,23.300359 9.84832206,23.3807869 C9.81970146,23.4612148 9.59407578,23.55408 9.50010482,23.4612148 C9.40565686,23.3683496 9.2773412,23.3807869 9.25587575,23.3994429 C9.23488731,23.4180988 9.13519224,23.3807869 9.13519224,23.2319539 C9.13519224,23.0831209 8.99399731,23.0333717 9.00019844,22.9715998 C9.00639957,22.9094133 9.06316375,22.7170497 9.00639957,22.6366218" id="Fill-42" fill="#ECC9C0"/><path d="M11.4744157,21.5638924 C11.4744157,21.5638924 11,21.3763178 11,21.6439547 C11,21.9110198 11.1258035,21.9865071 11.0368822,22.2038191 C10.9479608,22.421703 11.1258035,22.5469434 11.1258035,22.7059243 C11.1258035,22.8643334 11.1197407,22.9146582 11.2369552,22.9146582 C11.354675,22.9146582 11.5092769,22.9735612 11.5168554,23.0067299 C11.5244339,23.0404705 11.5759679,22.8563271 11.5759679,22.7562492 C11.5759679,22.6555994 11.7017714,23.2326201 11.7381483,23.2326201 C11.7755357,23.2326201 12.1746714,23.1325422 12.1746714,23.2326201 C12.1746714,23.3332698 12.270666,23.4167634 12.3666607,23.4167634 C12.4626554,23.4167634 12.6324143,23.6340755 12.6692965,23.3664385 C12.7061786,23.0993735 12.7061786,23.0318924 12.8173303,23.0318924 C12.9279768,23.0318924 13.0239714,22.8151522 12.9946678,22.7310868 C12.9648589,22.6475932 12.7804482,22.6453057 12.7880267,22.5000498 C12.7951,22.3547938 12.7506393,22.313047 12.5733018,22.313047 C12.3959643,22.313047 12.1746714,22.1632161 11.9998601,22.0105258 C11.8250488,21.8584074 11.4744157,21.5638924 11.4744157,21.5638924" id="Fill-43" fill="#ECC9C0"/><path d="M12.4594263,20.5869759 C12.4594263,20.5869759 12.2752047,20.4466727 12.1635437,20.5224615 C12.0518828,20.5982503 12,20.6627647 12,20.8456599 C12,21.0291815 12.1360985,21.8371776 12.1360985,21.91234 C12.1360985,21.9875025 12.1360985,22.0313472 12.2297132,22.0313472 C12.3237038,22.0313472 12.3688194,22.0852136 12.3816021,22.1816721 C12.3947608,22.2787569 12.6985386,22.209858 12.6985386,22.3307442 C12.6985386,22.4516305 12.9184767,22.5374409 12.9835183,22.4835745 C13.0478079,22.4297081 12.9120854,21.2985136 12.7823783,21.0291815 C12.7823783,21.0291815 12.7823783,20.6734127 12.6985386,20.6627647 C12.614323,20.6521167 12.4594263,20.5869759 12.4594263,20.5869759" id="Fill-44" fill="#ECC9C0"/><path d="M13.7387987,17.5005186 C13.7387987,17.5005186 13.3495905,17.5087523 13.3078684,17.5005186 C13.2673383,17.4918005 13.0623036,17.5915741 13.0414426,17.9088155 C13.0211775,18.2250882 13.03131,18.8503686 13.0009125,19.0005134 C12.9699188,19.1501739 13.7387987,19.1085208 13.7387987,19.1085208 C13.7387987,19.1085208 13.8621771,19.2252463 13.8621771,19.2916006 C13.8621771,19.3584392 14.1286029,19.5584708 14.3646311,19.4833984 C14.6000633,19.408326 14.4564198,19.133222 14.6620505,19.2082944 C14.8670851,19.2838512 15,19.2252463 15,18.9419085 C15,18.6585708 14.9284763,18.0768808 14.5899308,17.9843722 C14.2513852,17.892348 14.1798615,17.925283 14.1798615,17.7087839 C14.1798615,17.4918005 13.7596598,17.6584128 13.7387987,17.5005186" id="Fill-45" fill="#ECC9C0"/><path d="M14.7301899,20.5916875 C14.7301899,20.5916875 14.2164996,20.4259012 14.1370174,20.5401879 C14.0570446,20.6544747 14.1075796,20.8830481 14.0354569,21.0805808 C13.9633342,21.2788189 14.0212286,22.2777696 14.0354569,22.4230972 C14.0496852,22.5691302 14.3970517,22.4858843 14.3970517,22.3504334 C14.3970517,22.2149824 14.4264895,21.8975193 14.5780944,22.0195662 C14.7301899,22.1416132 14.6904489,22.0322647 14.7650247,21.7881709 C14.8405819,21.5447824 14.9686365,21.7782942 14.9980743,21.4558928 C15.0265309,21.1334913 14.7301899,20.5916875 14.7301899,20.5916875" id="Fill-46" fill="#ECC9C0"/><path d="M13.5503765,25.8495847 C13.5503765,25.8495847 13.4944439,25.8561609 13.4899693,25.7397239 C13.4854947,25.6236738 13.3266462,25.5172945 13.2052725,25.513813 C13.0838989,25.5107183 13,25.4588826 13,25.5784142 C13,25.697559 13.0369155,26.1528624 13.0654411,26.2368053 C13.0934074,26.3207482 13.2142217,26.3400899 13.2142217,26.4046912 C13.2142217,26.4692924 13.293646,26.5044943 13.4435453,26.4983049 C13.5923259,26.4917288 13.9844132,26.5528485 13.9983964,26.2851595 C14.0123795,26.0174706 13.9335146,26.0174706 13.8166155,25.9497747 C13.7002758,25.8816919 13.7466998,25.7849835 13.6622416,25.781502 C13.5783428,25.7784073 13.5503765,25.8495847 13.5503765,25.8495847" id="Fill-47" fill="#ECC9C0"/><path d="M11.8034684,16.1551047 C11.8034684,16.1551047 11.6823777,16.1969207 11.6779229,15.9941763 C11.673873,15.791432 11.7006021,15.7426466 11.5661469,15.6868919 C11.4320967,15.6305037 11.06113,15.4695753 11.0250863,15.5050556 C10.9894475,15.5392687 10.9939024,16.8545727 11.0250863,16.8761143 C11.0566751,16.8970223 11.199635,17.0649199 11.199635,17.127644 C11.199635,17.190368 11.3976729,17.0921637 11.3924081,17.2188789 C11.3875483,17.344327 11.4632806,17.519194 11.5082339,17.498286 C11.5527824,17.477378 11.5843712,17.45647 11.6066454,17.4697751 C11.6289196,17.4843473 11.7986085,17.4906831 11.8034684,17.3164496 C11.8079232,17.1415826 11.8569265,17.078225 11.8747458,17.1346133 C11.8929702,17.190368 11.9464282,17.2955416 11.9909767,17.2043067 C12.0355251,17.1137053 11.9059297,16.2032565 11.8034684,16.1551047" id="Fill-48" fill="#ECC9C0"/><path d="M9,13.1309073 L9,13.2908557 C9,13.3393918 8.95119077,13.4888609 8.89682099,13.4987887 C8.8424512,13.5087165 8.55515634,13.4552165 8.47360167,13.4259846 C8.39328268,13.3967526 8.43097082,13.2180516 8.40934648,13.1794434 C8.38772213,13.1408352 7.53078026,13.4938248 7.16254856,13.2858918 C6.79431687,13.0774073 7.13351016,11.4663407 7.37570281,11.5005365 C7.61789547,11.5336293 7.68215067,11.6301499 7.83290324,11.6301499 C7.83290324,11.6301499 7.97315256,11.6047788 7.97315256,11.7024025 C7.97315256,11.8000262 7.91569359,11.9980313 8.16653598,11.9941704 C8.41799622,11.9903096 8.46062707,11.9517014 8.47978006,12.0620106 C8.49831521,12.1717683 8.65957103,13.2158454 8.79240629,13.2158454 C8.92462371,13.2158454 8.81897335,13.0459692 9,13.1309073" id="Fill-49" fill="#ECC9C0"/><path d="M10.3380974,12.5 C10.3380974,12.5 10.1165265,12.5514631 10.1066694,12.668367 C10.0968123,12.7846356 10.0278125,14.0489766 10.0080982,14.1658804 C9.988384,14.2827843 10.003384,14.3406009 10.0672409,14.3406009 C10.1315265,14.3406009 10.3089546,14.3698269 10.3629545,14.3043861 C10.4173829,14.23831 10.5009542,14.2020952 10.569954,14.3120103 C10.6389538,14.42129 10.6732394,14.5750441 10.9149531,14.4581402 C10.9149531,14.4581402 11.0130957,13.7249495 10.9985243,13.5985154 C10.983953,13.4714459 10.8605247,13.6252 10.8558104,13.4498441 C10.8506676,13.2744883 10.8408105,12.6753558 10.8065248,12.6175392 C10.7718106,12.5584519 10.3380974,12.5 10.3380974,12.5" id="Fill-50" fill="#ECC9C0"/><path d="M11.5786708,8.9789387 C11.5786708,8.9789387 11.2994871,8.79778017 11.2301725,8.9789387 C11.1602162,9.16009723 10.7764189,10.3493979 11.18653,10.4747759 C11.5959994,10.600154 11.5786708,10.2173671 11.5786708,10.2173671 C11.5786708,10.2173671 12.1203512,10.3079463 12.1633519,10.2869647 C12.2069944,10.2659831 12.3205933,10.0085742 12.4341922,10.0085742 C12.547791,10.0085742 12.7660036,10.1058062 12.8353181,9.91799492 C12.9052745,9.73018368 13.0708593,9.29878074 12.9662456,9.25732921 C12.861632,9.21536594 12.8443033,9.29161628 12.8263329,9.12478667 C12.8090043,8.95795707 12.547791,8.91548204 12.3642358,8.89859438 C12.1806806,8.88170672 12.3905497,8.58898729 12.1806806,8.57517012 C11.9714533,8.56135294 12.0067524,8.47793814 11.9021387,8.50557249 C11.7968833,8.53371859 11.8058685,8.59615175 11.6922696,8.59615175 C11.5786708,8.59615175 11.5786708,8.9789387 11.5786708,8.9789387" id="Fill-51" fill="#ECC9C0"/><path d="M12.5284476,13.5 C12.5284476,13.5 13.7704681,14.2293581 13.9022078,14.4365395 C14.0346266,14.6437209 14.0305522,15.4635034 13.9022078,15.4967916 C13.7738635,15.5300797 12.4150428,15.2965659 12.3362706,15.1564576 C12.2568193,15.0163493 12.3131822,14.9666655 12.0755074,14.9666655 C11.8371536,14.9666655 12.2113216,13.641102 12.5284476,13.5" id="Fill-52" fill="#ECC9C0"/><path d="M17.6945846,11.6662029 C17.6945846,11.6662029 17.583503,11.5 17.5136225,11.5 C17.444146,11.5 16.9271115,13.1090902 17.008706,13.3417742 C17.0903005,13.5738427 17.2696468,13.4821234 17.2696468,13.4821234 C17.2696468,13.4821234 17.4057723,13.1841893 17.4384909,13.3331563 C17.4712095,13.4821234 17.7814303,13.4575007 17.8036466,13.3990219 C17.825055,13.3417742 17.9013984,13.051227 17.9502743,13.0672317 C17.9991503,13.0844676 18.0427751,12.7606797 17.9228069,12.5864744 C17.8036466,12.4122692 18.0318689,12.3710263 17.9446193,12.2048234 C17.8577736,12.039236 17.7923364,12.039236 17.8525225,11.9481322 C17.9123046,11.8570284 17.8084938,11.657585 17.6945846,11.6662029" id="Fill-53" fill="#ECC9C0"/><path d="M17.6550396,17.9234536 C17.6550396,17.9234536 17.5708301,17.6761092 17.5185621,17.5936611 C17.4667089,17.5105534 17.3696398,17.5 17.324009,17.5 C17.2783782,17.5 17.2136654,17.6655558 17.1033219,17.9234536 C16.9925635,18.1820109 17.1423155,18.1714576 17.0315571,18.4399087 C16.9212135,18.7077002 17.1356783,18.7901483 17.1356783,18.8633623 C17.1356783,18.935257 17.0771879,19.4411587 17.1228187,19.4411587 C17.1680346,19.4411587 17.4862057,19.61397 17.5057025,19.3672852 C17.5251993,19.1206004 17.8238736,19.0177051 17.8628671,18.8633623 C17.9018607,18.7077002 18.0706947,18.0474556 17.9665735,17.9030065 C17.8628671,17.7585573 17.6550396,17.9234536 17.6550396,17.9234536" id="Fill-54" fill="#ECC9C0"/><path d="M17.6295715,14.7003721 C17.6295715,14.7003721 17.1298069,15.7481628 17.0845065,15.8934671 C17.0392062,16.0387714 17.0508966,16.1940737 17.0055963,16.2980529 C16.9595654,16.4020321 17.2094477,16.370705 17.3175839,16.2980529 C17.4264508,16.2254007 17.6310328,16.6613137 17.8246551,16.4333592 C18.0175467,16.2047382 17.9488656,16.0387714 18.1994786,16.1320861 C18.449361,16.2254007 18.8592557,16.5366719 18.8592557,16.2673924 C18.8592557,15.9967798 18.9958873,15.7381648 18.9958873,15.4475561 C18.9958873,15.1569475 19.0294972,14.9183285 18.904556,14.7723577 C18.7796148,14.6277199 18.2922712,14.4764168 18.1198378,14.5030782 C17.9474043,14.5297395 17.9137944,14.7830222 17.6295715,14.7003721" id="Fill-55" fill="#ECC9C0"/><path d="M19.4941017,10.5 C19.4941017,10.5 19.6764281,10.1608752 19.9656124,10.1608752 C20.2554646,10.1608752 20.3643261,10.3301171 20.4317802,10.0563812 C20.4999021,9.78200425 20.6221209,10.4346111 20.8131295,9.88649828 C21.0034702,9.33838545 21.0849493,8.89476665 20.8805835,8.7768102 C20.6768856,8.66013589 20.2962042,8.43768543 20.1325779,8.51653674 C19.9696196,8.594747 19.9829768,8.74155148 19.725182,8.79219583 C19.4667194,8.84284017 19.2897359,9.1037547 19.1808744,9.40377435 C19.0726807,9.703794 18.9778443,10.0044547 19.0045588,10.1345914 C19.0319411,10.2653692 19.4941017,10.5 19.4941017,10.5" id="Fill-56" fill="#ECC9C0"/><path d="M18,6.76765479 C18,6.76765479 18.7685851,5.58256982 18.8297362,5.57495981 C18.8908873,5.56734981 19.0131894,5.69256895 19.0881295,5.57495981 C19.1630695,5.45665886 19.2446043,5.49540069 19.2446043,5.57426799 C19.2446043,5.65382711 19.3782974,5.72370078 19.4166667,5.66904712 C19.4556355,5.61439346 19.5779376,5.59087164 19.7206235,5.68495894 C19.8633094,5.77904625 19.822542,5.88835356 19.822542,6.06130817 C19.822542,6.23426278 20,6.06130817 20,6.35187191 C20,6.64243565 19.8363309,6.56356835 19.8297362,6.64243565 C19.822542,6.72130295 20.0815348,7.0270867 19.8501199,7.17651948 C19.618705,7.32526044 19.5779376,7.33287045 19.4832134,7.29412861 C19.3872902,7.25469496 19.3872902,7.34878227 19.3333333,7.44356139 C19.278777,7.53695688 19.1019185,7.49821505 19.0401679,7.44356139 C18.9796163,7.3875241 18.7254197,6.90947757 18.5497602,6.9558294 C18.3741007,7.00356487 18.2242206,7.3875241 18,6.76765479" id="Fill-57" fill="#ECC9C0"/><path d="M20.2179188,5.01312933 C20.2179188,5.01312933 19.9917594,5.02746754 20.0002323,4.80035027 C20.0080533,4.57323301 20.6128831,4.31055697 20.7099947,3.92055763 C20.8064546,3.52998475 21.2092399,3.43764667 21.2581217,3.53686709 C21.3070034,3.63666104 21.9033603,4.24689532 21.984178,4.32489519 C22.0649958,4.40289506 21.8147214,4.77167385 21.7182615,4.82902669 C21.6211498,4.88523248 21.7906064,4.97757056 21.6615587,5.07679099 C21.532511,5.17658494 21.3956422,5.10546741 21.3956422,5.15536438 C21.3956422,5.20468783 20.9113874,5.65204002 20.7178158,5.44614331 C20.5242442,5.2402466 20.2179188,5.01312933 20.2179188,5.01312933" id="Fill-58" fill="#ECC9C0"/><path d="M22,1.55886142 C22,1.55886142 22.0998378,2.06250938 22.1694022,2.07261425 C22.2376784,2.08165545 23.2747036,2.36725097 23.4009501,2.43373037 C23.5271967,2.50020978 23.7004636,2.59487645 23.7577898,2.27205246 C23.8151161,1.94869664 24.0566592,1.6354457 23.9877389,1.55886142 C23.9188186,1.48280899 23.6888695,1.54928839 23.7693839,1.35942321 C23.8498983,1.16955804 23.8846805,1.159985 23.7577898,1.03659923 C23.6308992,0.912681622 23.4119001,0.808441917 23.4119001,0.589857639 C23.4119001,0.37127336 22.9294579,0.598898838 22.8946757,0.770149781 C22.8598935,0.941400724 22,1.55886142 22,1.55886142" id="Fill-59" fill="#ECC9C0"/><path d="M20,15.2818782 C20,15.2818782 20.193717,13.480817 20.9394362,13.5001546 C21.6839409,13.5188254 21.1319387,13.7502094 21.7106605,13.6921967 C22.2899896,13.6348508 21.8424366,14.0396061 21.7106605,14.1262917 C21.5794917,14.2123106 21.7896047,14.791104 21.4744351,14.9638085 C21.158051,15.1371798 21.0784995,14.791104 20.9995553,15.2818782 C20.9218256,15.7726523 21.0815358,15.2818782 20.5410715,15.2818782 L20,15.2818782 Z" id="Fill-60" fill="#ECC9C0"/><path d="M20,12.4214892 C20,12.4214892 20.5501163,12.5443928 20.6641301,12.4826525 C20.7781438,12.4214892 20.3014239,12.3730201 20.8729178,12.3441695 C21.4444117,12.3158958 21.7273083,12.6361378 21.7843152,12.3441695 C21.8406095,12.0522011 22.1249313,11.1607167 21.936096,11.03839 C21.7458356,10.9154863 21.480041,11.038967 21.4992808,10.8468218 C21.5185206,10.6540996 21.3510629,10.5092694 21.0888313,10.5000372 C20.8258871,10.490228 20,12.4214892 20,12.4214892" id="Fill-61" fill="#ECC9C0"/><path d="M23.0779983,9.03617914 L23.0779983,8.75881426 C23.0779983,8.48144938 23.5478969,7.72139758 23.5787099,7.56050193 C23.6102233,7.39900593 23.6200274,7.60492834 23.9022467,7.66796581 C24.1837657,7.73040293 24.1732613,7.8282611 24.1732613,7.89129857 C24.1732613,7.95373569 24.5178069,7.66796581 24.5703291,7.74781328 C24.622151,7.8282611 24.5591244,8.00716745 24.747504,8.03418351 C24.934483,8.06119957 25.0234206,8.35957694 24.9947085,8.62193289 C24.9659963,8.88368849 24.7678126,8.97374202 24.7993259,9.25050654 C24.8308392,9.52787142 23.8917423,9.25050654 23.8917423,9.25050654 C23.8917423,9.25050654 23.8812378,9.4210079 23.7663893,9.4210079 C23.6515407,9.4210079 22.9323367,9.64434065 23.0051675,9.33995972 L23.0779983,9.03617914 Z" id="Fill-62" fill="#ECC9C0"/><path d="M24.699943,10.9293157 C24.699943,10.9293157 24.7270346,10.6611194 24.7565344,10.6611194 C24.7854321,10.6611194 24.8438297,10.5304919 24.668035,10.5077741 C24.4928424,10.4850563 24.4121695,10.5002015 24.4121695,10.7185449 C24.4121695,10.9375194 24.2592522,11.35843 24.156906,11.634199 C24.0545598,11.910599 23.959438,12.3857799 24.0178355,12.4009251 C24.0762331,12.4160703 24.4488937,12.5 24.4488937,12.5 C24.4488937,12.5 24.5735153,12.2835497 24.668035,12.2728219 C24.7631568,12.2627251 25.2676634,12.3523342 25.3995094,12.2728219 C25.5313554,12.1939406 25.7793945,11.1975121 25.8745163,11.0984372 C25.9696381,10.9981002 26.1014841,10.7683979 25.8745163,10.7608253 C25.6481505,10.7532527 25.6337017,10.8296098 25.5018557,10.8296098 C25.3700096,10.8296098 25.3995094,10.8832491 25.3188365,10.8832491 C25.2387657,10.8832491 25.129195,10.8144646 25.0780219,10.844755 C25.0268488,10.8756765 24.8263706,11.1280966 24.699943,10.9293157" id="Fill-63" fill="#ECC9C0"/><path d="M26,7.14185292 C26,7.14185292 26.278372,6.06056594 26.3707627,5.88282983 C26.4637533,5.70509373 26.5681428,5.64632043 26.6725323,5.57267679 C26.7769218,5.49974126 27.0786914,5.45442209 27.4146576,5.57267679 C27.7506237,5.69093149 28.1129872,6.14270693 27.966602,6.5257955 C27.8202167,6.90888408 27.6000389,6.62209873 27.5538435,6.81328896 C27.5076482,7.00518731 27.4260564,7.51077926 27.2520739,7.44280051 C27.0786914,7.37411365 27.1248867,7.27710231 26.8003194,7.44917352 C26.4751522,7.62053661 26.6119384,7.30117811 26.4451552,7.33091882 C26.278372,7.36065952 26.0461953,7.57946612 26,7.14185292" id="Fill-64" fill="#ECC9C0"/><path d="M27,12.2174366 L27.247319,10.9145 C27.247319,10.9145 27.5040811,10.6523601 27.5238666,10.5472653 C27.5436521,10.4421705 27.9690407,10.5341285 28.0185045,10.6123524 C28.0679683,10.6911735 28.0185045,10.4290337 28.4043221,10.5604022 C28.7896901,10.6911735 29.027566,10.8619526 28.997438,10.9282339 C28.9677598,10.9933211 28.6912122,11.518795 28.6912122,11.518795 L28.4636787,11.4638591 L28.000068,12.1625007 L27.3615354,12.0526288 C27.3615354,12.0526288 27.3957104,12.5207784 27.28689,12.4992817 C27.1780697,12.477785 27,12.2174366 27,12.2174366" id="Fill-65" fill="#ECC9C0"/><path d="M30,10.2717586 C30,10.2717586 30.3382667,10.0006972 30.3382667,9.85499574 C30.3382667,9.70976735 30.365328,9.67807256 30.4600427,9.67807256 C30.5541423,9.67807256 30.4274461,9.67570728 30.6765334,9.60522184 C30.9256206,9.5347364 31.2263705,9.44390953 31.357987,9.54514365 C31.4889884,9.64590471 32.1255448,9.62556327 31.9779375,9.76700721 C31.8297152,9.90750502 31.8297152,10.0588831 31.5148197,10.1695784 C31.2005392,10.2807467 31.2140699,10.4396937 30.7417266,10.4108373 C30.2699983,10.3810347 30.568288,10.7064977 30,10.2717586" id="Fill-66" fill="#ECC9C0"/><path d="M24,14.0946838 C24,14.0946838 24.2814693,13.5649193 24.3437413,13.1574082 C24.4060132,12.7504403 24.530059,12.4651825 24.6675555,12.5059336 C24.8040557,12.5466848 24.8543714,12.5254942 24.9908716,12.5021302 C25.1283681,12.4787662 25.0660961,12.6558978 25.2524139,12.628187 C25.4392298,12.6010196 25.862181,12.85911 25.862181,12.85911 C25.862181,12.85911 25.7256808,13.419302 25.862181,13.2818349 C25.9996775,13.1443678 25.9867249,12.9536526 25.9996775,13.1443678 C26.0116337,13.3345397 25.6883176,13.7007564 25.5015017,13.5920867 C25.3146858,13.4834171 25.414321,13.9860142 25.2150507,13.9588468 L25.0157804,13.9316794 C25.0157804,13.9316794 25.0750633,14.4570971 24.8274699,14.3506008 C24.5803748,14.2435612 24.0543012,14.8955791 24,14.0946838" id="Fill-67" fill="#ECC9C0"/><path d="M23,18.2117855 C23,18.2117855 22.5981735,18.3026182 22.5981735,17.9708008 C22.5981735,17.6383656 22.5256514,17.5827537 22.3403169,17.5160195 C22.1549825,17.4492853 21.5984421,17.614885 21.4850927,17.5796642 C21.3717432,17.5438254 21.2680634,17.9708008 21.2680634,17.9708008 C21.2680634,17.9708008 21.1756648,17.93558 21.1240935,18.0536007 C21.0725222,18.1728572 21,19.4642879 21,19.4642879 C21,19.4642879 21.5372012,19.2869479 21.6553854,19.4642879 C21.7735697,19.6422458 21.9486973,19.0972497 21.9486973,19.0972497 C21.9486973,19.0972497 22.0104754,19.2393689 22.1345689,19.1207303 C22.2581252,19.0020917 22.4466828,18.3267167 22.4466828,18.3267167 C22.4466828,18.3267167 22.8662369,18.8556471 23,18.2117855" id="Fill-68" fill="#ECC9C0"/><path d="M19.330312,20.5341013 L19.4031923,20.8617881 C19.4031923,20.8617881 19.6688525,20.815166 19.7023539,20.9084102 C19.7346798,21.0023204 19.7599528,20.6746337 19.8340085,20.6746337 C19.908652,20.6746337 20.0491228,20.8038435 20.1149501,20.7299141 C20.1807774,20.6559848 20.1067217,20.4315327 20.362978,20.5341013 C20.6186466,20.637336 20.4623067,20.4628361 20.7344321,20.5074601 C21.0071453,20.5527502 21.0400589,20.8204942 20.9654154,20.9257269 C20.8913597,21.0302936 20.8831313,21.5078371 20.8008472,21.6663522 C20.7179753,21.8255334 20.6756577,22.0539817 20.5234321,21.8748196 C20.3712064,21.6943255 20.3794348,22.1438957 20.2142788,22.1532201 C20.0491228,22.1625445 19.9862342,22.1532201 19.9862342,22.1532201 C19.9862342,22.1532201 20.1237662,22.4902313 19.9662509,22.4995557 C19.8093233,22.5088801 19.7928665,22.3683478 19.619482,22.3683478 C19.4460976,22.3683478 19,22.3869966 19,22.2378059 C19,22.0879492 19.1322424,20.7212558 19.124014,20.6000383 C19.1157855,20.4781548 19.330312,20.5341013 19.330312,20.5341013" id="Fill-69" fill="#ECC9C0"/><path d="M20.1590133,23.3270596 C20.1590133,23.3270596 20,23.3767605 20,23.5656238 C20,23.7538658 20.1817295,24.1222734 20.1590133,24.211735 C20.137007,24.3011965 20.1405564,24.5 20.161143,24.5 C20.1817295,24.5 20.2725943,24.2912564 20.3293847,24.3807179 C20.3861752,24.4701795 20.6708374,24.5037276 20.6708374,24.4223424 C20.6708374,24.3409572 20.8745733,23.8737691 20.8859314,24.0029914 C20.8972894,24.1322136 21.1585256,24.211735 21.1925999,24.0526922 C21.2266742,23.8936495 21.0676609,23.8538888 21.2266742,23.8936495 C21.3863974,23.9334102 21.8400113,23.9532905 21.8400113,23.7538658 C21.8400113,23.5556836 21.9990246,23.5059827 21.9990246,23.5059827 C21.9990246,23.5059827 22.0252902,22.8126557 21.8052271,22.6579617 C21.585164,22.5038891 21.4971388,22.4809024 21.4708732,22.5119655 C21.4446076,22.5424072 21.3473539,22.6734933 21.2770757,22.6660381 C21.2067975,22.6579617 21.0655312,22.6119884 20.9334934,22.6890248 C20.8014555,22.7660611 20.7482145,22.9971701 20.6254051,22.9971701 C20.5018858,22.9971701 20.697103,23.4792685 20.1590133,23.3270596" id="Fill-70" fill="#ECC9C0"/><path d="M19.3774878,25.7869765 C19.165969,25.7945759 19.0430594,25.8933677 19.0430594,26.1452325 C19.0430594,26.3965546 19.1471038,26.585996 19.0430594,26.8465459 C18.9384433,27.1070957 19.0361993,27.5565442 19.2099877,27.4941208 C19.3837762,27.4306118 19.7439298,27.2509409 19.7439298,27.2509409 C19.7439298,27.2509409 19.8759862,27.3676456 19.9708838,27.3676456 C20.0657814,27.3676456 20.1612507,27.0207886 20.2790153,27.019703 C20.3967798,27.0175317 20.5860034,27.0262167 20.6431706,26.7477541 C20.6997662,26.4687486 20.9558755,26.9903911 20.9936059,26.522487 C21.0319079,26.0551257 20.8895615,25.6865563 20.7946638,25.6686435 C20.6997662,25.6507307 20.5488447,25.8396293 20.387633,25.6686435 C20.2264214,25.4976576 19.8857046,25.453147 19.8662677,25.551396 C19.8474026,25.6507307 19.8948514,25.8396293 19.8193906,25.8483143 C19.7439298,25.8575421 19.3774878,25.7869765 19.3774878,25.7869765" id="Fill-71" fill="#ECC9C0"/><path d="M4.66421982,7.71822551 C4.66421982,7.71822551 4.25650117,7.82481717 4.21501817,7.65731599 C4.17412778,7.4898148 4.01056623,7.3739543 4.01056623,7.75199057 C4.01056623,8.12870272 4.11960726,8.23529439 4.01056623,8.76759064 C3.90211781,9.2998869 4.66421982,9.23897738 4.66421982,9.23897738 C4.66421982,9.23897738 4.7999285,9.52763555 5.04586344,9.49784284 C5.29061315,9.46738808 5.22246251,9.25420476 5.37180132,9.2998869 C5.52173274,9.34556904 5.95789688,9.57397975 5.99819465,9.16284047 C6.03908504,8.75236326 5.37180132,9.13106159 5.37180132,8.68284696 C5.37180132,8.23529439 5.43995196,8.23529439 5.16794199,8.0677932 C4.89593202,7.90029202 4.77326085,8.20483962 4.66421982,7.71822551" id="Fill-72" fill="#ECC9C0"/><path d="M20.5704254,40.2627122 C20.5704254,40.2627122 20.0081026,39.6826525 19.8503714,39.4637411 C19.2653612,38.6497685 19.1967589,35.5 19.1967589,35.5 L16.2441594,35.5 L16.1863606,38.3841856 C16.15395,38.8386768 16.1264011,39.1876016 15.8406482,39.5354152 L15.2156651,40.2971602 C13.3050641,42.2662517 12,46.1933224 12,50.7237885 C12,57.2277909 14.6857529,62.5 17.9997299,62.5 C21.3131668,62.5 24,57.2277909 24,50.7237885 C24,46.1933224 22.7883862,42.6362897 20.5704254,40.2627122" id="Fill-73" fill="#FFBCC3"/></g></g></g><g id="Chair" transform="translate(20.500000, 117.000000) scale(1 1)"><g id="Chair/Wooden 1" stroke="none" stroke-width="1" fill="none" fill-rule="evenodd"><g id="Chair"><path d="M17.2691839,54.1488091 L3.60818391,109.333809 C3.88418391,110.252809 4.98818391,110.618809 5.75918391,110.045809 L5.82918391,109.994809 L21.0111839,54.4638091 L17.2691839,54.1488091 Z" id="Fill-1" fill="#D69E63"/><path d="M32.5138839,56.5482091 L33.0108839,116.231209 C33.5118839,117.049209 34.6728839,117.121209 35.2718839,116.372209 L35.3258839,116.304209 L36.2128839,55.8992091 L32.5138839,56.5482091 Z" id="Fill-3" fill="#D69E63"/><path d="M34.1920839,46.9115091 L41.4460839,106.153509 C42.0370839,106.909509 43.1990839,106.849509 43.7090839,106.037509 L43.7550839,105.964509 L37.7940839,45.8475091 L34.1920839,46.9115091 Z" id="Fill-5" fill="#D69E63"/><path d="M50.9259839,49.6917091 L66.0869839,107.419709 C66.7739839,108.088709 67.9169839,107.874709 68.3129839,107.000709 L68.3489839,106.920709 L54.3519839,48.1537091 L50.9259839,49.6917091 Z" id="Fill-7" fill="#D69E63"/><path d="M19.5914839,13.1859091 C19.5914839,13.1859091 6.32548391,15.1539091 1.39648391,10.2249091 C-3.53251609,5.29590909 5.37648391,0.795909093 15.7714839,0.0939090928 C28.1444839,-0.741090907 40.7344839,4.14190909 32.3834839,8.79590909 C24.0314839,13.4509091 19.5914839,13.1859091 19.5914839,13.1859091" id="Fill-9" fill="#D69E63"/><path d="M8.01088391,11.6722091 C8.01088391,11.6722091 15.8068839,45.8842091 16.6388839,46.7922091 C17.4718839,47.7002091 18.9098839,46.1872091 18.9098839,46.1872091 C18.9098839,46.1872091 11.8708839,14.3972091 10.6598839,12.8082091 C9.44888391,11.2182091 8.01088391,11.6722091 8.01088391,11.6722091" id="Fill-11" fill="#D69E63"/><path d="M18.1529839,11.1429091 C18.1529839,11.1429091 20.5749839,32.9409091 23.8299839,44.4459091 C23.8299839,44.4459091 24.2079839,45.4299091 25.1169839,45.4299091 C26.0249839,45.4299091 26.0249839,44.5969091 26.0249839,44.5969091 C26.0249839,44.5969091 22.3159839,7.13090909 18.1529839,11.1429091" id="Fill-13" fill="#D69E63"/><path d="M26.7061839,9.93200909 C26.7061839,9.93200909 29.4311839,42.4030091 30.2631839,43.9160091 C31.0961839,45.4300091 32.4581839,43.8400091 32.4581839,43.8400091 C32.4581839,43.8400091 29.6581839,10.9920091 28.5981839,8.26600909 C27.5391839,5.54100909 26.7061839,9.93200909 26.7061839,9.93200909" id="Fill-15" fill="#D69E63"/><path d="M57.2848839,48.3822091 C57.2848839,48.3822091 25.4198839,37.4062091 13.9148839,48.9112091 C13.9148839,48.9112091 14.5198839,50.6532091 20.5758839,53.2262091 C26.6308839,55.7992091 36.5458839,55.8752091 41.6928839,54.6642091 C46.8398839,53.4532091 56.4518839,51.1072091 57.2848839,48.3822091" id="Fill-17" fill="#D69E63"/><path d="M57.2848839,48.3822091 C57.2848839,48.3822091 43.7828839,54.1342091 37.9248839,54.0392091 C32.0668839,53.9442091 13.9148839,48.9112091 13.9148839,48.9112091 L13.9248839,53.2362091 C13.9248839,53.2362091 14.8228839,54.6532091 14.9638839,54.6532091 C15.1058839,54.6532091 33.9088839,59.8032091 41.3738839,58.3862091 C48.8378839,56.9682091 57.5308839,53.2362091 57.5308839,53.2362091 C57.5308839,53.2362091 57.6998839,49.1502091 57.2848839,48.3822091" id="Fill-19" fill="#AA7133"/></g></g></g></g><g transform="translate(-49.000000, 0.000000) scale(1 1)" id="Master/Female Character/Sitting"><g id="Master/Female Character/Sitting" stroke="none" stroke-width="1" fill="none" fill-rule="evenodd"><g id="Female Sitting Lower" transform="translate(68.000000, 108.000000) scale(1 1)"><g id="Female Sitting Lower/Jeans 2" stroke="none" stroke-width="1" fill="none" fill-rule="evenodd"><g id="Group-35" transform="translate(41.000000, 30.000000)"><path d="M17.7329,5.215 C17.7329,5.215 22.9959,1.614 28.6739,1.891 C34.3519,2.168 38.6639,3.968 40.2479,12.694 C40.2479,12.694 53.0489,15.048 65.7909,26.958 C78.5319,38.868 79.0859,39.284 77.4239,48.979 C75.7619,58.673 70.9149,70.445 70.9149,70.445 L69.2369,88.667 C69.2369,88.667 71.5849,95.131 74.6619,97.208 C77.7399,99.286 79.6909,100.286 78.0999,101.748 C76.5089,103.211 76.1249,101.441 73.0459,101.748 C69.9679,102.057 69.6609,100.441 69.6609,100.441 C69.6609,100.441 73.2769,109.136 79.6639,112.906 C79.6639,112.906 81.8189,114.907 79.6639,115.83 C77.5089,116.754 71.5069,116.677 68.6599,114.753 C65.8129,112.829 59.9649,107.904 58.0409,107.366 C56.1169,106.827 57.0409,103.98 57.0409,103.98 L59.8109,96.285 C59.8109,96.285 59.0419,95.284 56.8869,94.592 C54.7319,93.9 53.5779,90.976 53.8089,89.899 C54.0399,88.82 57.8869,83.358 57.9639,79.356 C57.9639,79.356 56.0399,73.893 53.4239,69.044 C50.8079,64.196 54.1929,52.423 56.1169,49.268 C56.1169,49.268 53.1159,49.73 47.4219,50.192 C41.7279,50.653 22.3869,52.041 11.0449,45.794 C-0.2971,39.546 0.8189,18.364 17.7329,5.215" id="Fill-1" fill="#ffc280"/><path d="M33.0576,20.8448 C36.7786,21.6988 40.4546,22.7788 44.0486,24.0888 C47.6396,25.4068 51.1766,26.8978 54.5576,28.7118 C57.9296,30.5328 61.1916,32.6088 64.0966,35.1488 C67.0086,37.6598 69.5036,40.7528 71.0376,44.3318 L71.0636,44.3928 L71.0646,44.4598 C71.0916,48.7908 71.0756,53.1208 71.0526,57.4518 C71.0516,61.7828 70.9636,66.1148 70.9146,70.4458 C70.8036,66.1158 70.6516,61.7858 70.5896,57.4548 C70.5026,53.1258 70.4236,48.7958 70.3886,44.4648 L70.4146,44.5928 C68.9146,41.1448 66.4506,38.1798 63.6086,35.7018 C60.7806,33.1898 57.5746,31.1128 54.2476,29.2848 C50.9076,27.4758 47.4506,25.8658 43.8976,24.4878 C40.3476,23.1118 36.7466,21.8328 33.0576,20.8448" id="Fill-3" fill="#703312"/><path d="M57.9639,79.3556 C58.5879,80.6656 59.0689,82.0366 59.4909,83.4236 C59.9049,84.8156 60.2309,86.2346 60.4599,87.6726 C60.6449,89.1146 60.7979,90.5716 60.7119,92.0326 C60.6249,93.4866 60.3789,94.9466 59.8109,96.2856 C60.1799,94.8816 60.3199,93.4526 60.3279,92.0226 C60.3329,90.5916 60.1869,89.1626 59.9659,87.7476 C59.7819,86.3246 59.4529,84.9236 59.1219,83.5246 C58.7799,82.1266 58.3949,80.7376 57.9639,79.3556" id="Fill-5" fill="#000"/><path d="M69.2373,88.6671 C69.1113,90.6521 69.0033,92.6191 69.0223,94.5861 C69.0413,96.5531 69.1823,98.5071 69.6603,100.4401 C69.2293,99.5401 68.9673,98.5631 68.7833,97.5791 C68.6053,96.5921 68.5433,95.5901 68.5223,94.5911 C68.5203,93.5911 68.5693,92.5931 68.6923,91.6031 C68.8123,90.6131 68.9703,89.6281 69.2373,88.6671" id="Fill-7" fill="#000"/><path d="M55.7891,49.3155 C55.8561,48.7505 56.1181,48.2565 56.4321,47.8145 C56.7601,47.3825 57.1611,46.9925 57.6781,46.7605 C57.5621,47.0225 57.4151,47.2425 57.2761,47.4665 C57.1391,47.6925 56.9831,47.8995 56.8331,48.1115 C56.5171,48.5255 56.2011,48.9315 55.7891,49.3155" id="Fill-9" fill="#703312"/><path d="M69.5625,100.1632 L70.0015,101.1942 C70.0015,101.1942 74.5245,103.9632 80.7715,101.3932 C80.7715,101.3932 81.4505,100.9882 80.9075,100.7452 C80.3645,100.5012 74.8265,96.8532 74.3775,97.0012 C73.9295,97.1472 71.7405,100.4742 69.5625,100.1632" id="Fill-11" fill="#F90606"/><path d="M59.811,96.2853 C59.434,95.3383 58.373,93.2123 58.104,91.7643 L55.872,85.2203 C55.872,85.2203 50.707,90.2173 52.577,93.1973 C52.577,93.1973 55.369,98.2723 55.721,98.3313 C55.995,98.3773 57.011,96.5473 57.45,95.7283 C58.696,96.2413 59.691,96.6163 59.691,96.6163 L59.811,96.2853 Z" id="Fill-13" fill="#F90606"/><g id="Group-17" transform="translate(55.000000, 97.000000)" fill="#F90606"><path d="M20.7314,12.7091 C18.4904,12.5511 16.3524,15.2671 15.3144,16.8301 C14.9324,17.4061 14.1604,17.5621 13.5854,17.1771 L7.1544,12.8751 C6.7814,12.6251 6.5444,12.2241 6.5124,11.7751 C6.3384,9.3491 4.7284,3.2761 4.1454,1.1351 C4.1454,1.1351 4.4284,0.5781 4.3924,0.4471 C4.3544,0.3111 3.9344,0.3731 3.9344,0.3731 C3.9344,0.3731 2.1094,3.6581 0.8684,6.5791 C-0.0376,8.7101 0.6534,9.6751 2.0844,10.6641 L2.0694,10.6561 C2.0694,10.6561 4.1064,14.8281 4.3504,14.9451 C4.5554,15.0451 5.3904,13.4701 5.6514,12.9651 C8.9244,15.1681 14.2154,18.9181 14.2154,18.9181 C23.8384,21.6201 29.1254,18.4801 29.1254,17.8961 C29.1254,17.3131 20.7314,12.7091 20.7314,12.7091" id="Fill-15"/></g><g id="Group-20" fill="#2B3C59"><path d="M28.6147,0.7198 C28.6147,0.7198 22.8917,-0.5092 16.7847,5.0448 C10.6787,10.6008 -6.0293,25.4968 2.2637,40.6178 C10.5567,55.7398 54.3227,50.3298 54.3227,50.3298 C54.3227,50.3298 49.0997,58.4478 50.8857,64.9448 C52.6727,71.4418 56.3127,80.8428 56.3127,80.8428 C56.3127,80.8428 62.5327,85.2758 71.0787,81.2248 L71.7317,68.3658 C71.7317,68.3658 76.6147,63.8368 77.6487,54.0318 C78.6817,44.2268 79.8487,41.8698 75.6197,36.1908 C71.3767,30.4918 60.9267,18.8198 40.6107,12.2458 L39.1627,6.6758 C39.1627,6.6758 33.4937,-0.2162 28.6147,0.7198" id="Fill-18"/></g><path d="M15.2339,8.713 C16.2009,9.125 17.1889,9.482 18.1899,9.792 C19.1829,10.125 20.1889,10.416 21.2029,10.67 C23.2299,11.181 25.2859,11.57 27.3619,11.758 C29.4369,11.986 31.5279,11.928 33.5979,11.713 L35.1449,11.484 C35.6609,11.407 36.1579,11.24 36.6669,11.126 C37.7029,10.939 38.6559,10.492 39.6579,10.166 C37.7679,11.079 35.7529,11.792 33.6509,12.094 C31.5559,12.393 29.4229,12.447 27.3159,12.255 C25.2129,12.024 23.1269,11.635 21.1019,11.039 C19.0779,10.443 17.0989,9.688 15.2339,8.713" id="Fill-21" fill="#000830"/><path d="M21.894,11.0567 L22.412,9.6277 C22.582,9.1637 22.718,8.6997 22.939,8.1937 C23.11,8.7197 23.054,9.2817 22.883,9.7947 C22.788,10.0487 22.668,10.2957 22.499,10.5107 C22.335,10.7267 22.144,10.9297 21.894,11.0567" id="Fill-23" fill="#000830"/><path d="M23.6528,11.4601 C23.6388,10.8751 23.7168,10.3421 23.8008,9.8031 C23.8538,9.5361 23.8978,9.2701 23.9698,9.0031 C24.0408,8.7361 24.1018,8.4681 24.2158,8.1931 C24.3958,8.7541 24.3828,9.3331 24.2938,9.8891 C24.1868,10.4411 24.0108,10.9901 23.6528,11.4601" id="Fill-25" fill="#000830"/><path d="M30.6816,9.004 C30.9926,9.507 31.2116,10.058 31.5256,10.389 C31.6016,10.464 31.6666,10.499 31.7356,10.513 C31.8366,10.531 31.9086,10.512 31.9956,10.471 C32.1676,10.37 32.3016,10.101 32.4106,9.826 C32.4956,10.114 32.5016,10.454 32.2526,10.758 C32.1296,10.914 31.9046,10.985 31.7196,10.985 C31.4986,10.983 31.3056,10.866 31.1746,10.744 C30.9336,10.481 30.8096,10.192 30.7426,9.897 C30.6736,9.603 30.6396,9.307 30.6816,9.004" id="Fill-27" fill="#000830"/><path d="M35.5825,7.837 C35.9255,8.35 36.0975,8.926 36.1885,9.516 C36.2255,9.813 36.2445,10.116 36.2015,10.421 C36.1615,10.721 36.0935,11.04 35.8925,11.285 C35.8935,10.979 35.8555,10.703 35.8165,10.423 L35.6935,9.583 C35.6255,9.018 35.5495,8.45 35.5825,7.837" id="Fill-29" fill="#000830"/><path d="M36.4492,7.4962 C36.9112,7.9792 37.1702,8.6082 37.2962,9.2572 C37.4042,9.9042 37.3502,10.6282 36.9792,11.1892 C36.9632,10.8542 36.9652,10.5502 36.9312,10.2442 C36.8902,9.9402 36.8632,9.6422 36.8042,9.3432 C36.7042,8.7402 36.5592,8.1482 36.4492,7.4962" id="Fill-31" fill="#000830"/><path d="M38.1235,18.7872 C41.7525,19.9732 45.3165,21.3782 48.7785,23.0072 C52.2345,24.6412 55.6245,26.4462 58.8285,28.5582 C62.0225,30.6732 65.0835,33.0342 67.7485,35.8252 C70.4225,38.5902 72.6295,41.8942 73.8355,45.5972 L73.8565,45.6592 L73.8505,45.7262 C73.4885,50.0422 73.0825,54.3532 72.6695,58.6652 C72.2795,62.9772 71.8015,67.2842 71.3635,71.5932 C71.6415,67.2702 71.8805,62.9452 72.2075,58.6272 C72.5115,54.3072 72.8225,49.9872 73.1775,45.6712 L73.1915,45.8012 C72.0085,42.2312 69.8205,39.0572 67.2135,36.3332 C64.6225,33.5762 61.6165,31.2192 58.4685,29.1002 C55.3035,26.9972 52.0055,25.0832 48.5925,23.3902 C45.1795,21.7002 41.7085,20.1022 38.1235,18.7872" id="Fill-33" fill="#000023"/></g></g></g><g id="Female Top" transform="translate(82.000000, 93.000000) scale(1 1)"><g id="Female Top/Sweater 6" stroke="none" stroke-width="1" fill="none" fill-rule="evenodd"><g id="Group-112" transform="translate(28.000000, -0.000000)"><path d="M40.6809,58.1291 C38.4829,57.8701 35.4119,57.7971 35.1399,57.9091 C34.8689,58.0231 34.0319,58.0501 33.2429,57.9661 C32.4539,57.8811 29.7779,59.6851 27.7769,60.4381 C25.7769,61.1911 25.7239,60.8051 25.7239,60.8051 C20.6659,57.4151 12.4749,53.7121 12.4749,53.7121 L11.7449,37.1791 L15.6019,44.7691 L16.0039,50.0291 C20.8809,54.7541 37.4949,51.6501 37.4949,51.6501 L38.8189,44.6851 C38.8189,44.6851 39.6789,47.6951 40.6809,51.6501 C41.6829,55.6051 40.6809,58.1291 40.6809,58.1291 M44.4889,27.4581 C42.3809,22.8201 34.5799,15.8621 29.1339,11.8271 C29.1339,11.8271 30.4099,3.7501 27.2689,1.5991 C24.1279,-0.5539 22.9559,2.8231 22.9559,2.8231 C22.9559,2.8231 22.6079,9.7511 19.7759,11.7551 C16.9439,13.7601 4.0679,19.8491 2.4309,29.4621 C0.7939,39.0731 3.8449,57.6711 4.9749,58.4411 C6.1059,59.2101 23.1199,67.1601 28.1709,65.9451 C33.2229,64.7311 35.1399,63.1961 35.1399,63.1961 C35.1399,63.1961 33.5969,64.4231 34.1129,65.4681 C34.1129,65.4681 34.3849,65.6851 34.9409,65.4271 C34.9409,65.4271 34.8189,66.1741 35.1989,66.2141 C35.5789,66.2551 37.3849,63.6761 37.3849,63.6761 C37.3849,63.6761 36.0949,66.0921 36.8009,66.3911 C37.5069,66.6901 39.6239,63.3101 39.6239,63.3101 C39.6239,63.3101 39.7599,62.8481 40.0179,63.0521 C40.2759,63.2551 38.4759,65.6311 38.3239,65.9291 C38.1719,66.2281 38.2579,66.4721 38.8189,66.3101 C39.3799,66.1471 41.3209,64.3821 41.3209,64.3821 C41.3209,64.3821 42.4039,65.3551 43.7659,64.4541 C45.1289,63.5541 49.0169,58.5431 50.0209,54.2861 C51.0259,50.0291 46.5979,32.0971 44.4889,27.4581" id="Fill-86" fill="#ffc280"/><path d="M35.3718,59.2102 C36.7458,59.6372 38.0928,60.1122 39.4348,60.5962 L41.4628,61.3172 C41.8008,61.4442 42.1368,61.5752 42.4718,61.7282 C42.6388,61.8062 42.8058,61.8842 42.9728,61.9832 C43.0568,62.0342 43.1408,62.0872 43.2258,62.1582 C43.3038,62.2412 43.4238,62.2972 43.4628,62.5502 C43.4348,62.8412 43.3118,62.8802 43.2298,62.9692 C43.1388,63.0462 43.0438,63.0982 42.9488,63.1422 C42.7578,63.2272 42.5638,63.2822 42.3718,63.3092 C41.9868,63.3702 41.6078,63.3572 41.2378,63.3172 C40.4998,63.2322 39.7878,63.0232 39.1198,62.7682 C37.8418,62.2852 36.2768,62.2722 35.1408,63.1962 C35.6198,62.6512 36.3298,62.3432 37.0508,62.2112 C37.7828,62.1022 38.5348,62.1932 39.2398,62.4022 C39.9268,62.6012 40.5948,62.8082 41.2848,62.8642 C41.6258,62.8962 41.9688,62.8982 42.2898,62.8382 C42.4528,62.8142 42.6038,62.7632 42.7388,62.7002 C42.8048,62.6682 42.8668,62.6302 42.9118,62.5912 C42.9618,62.5692 42.9828,62.4682 42.9638,62.5752 C43.0058,62.6502 42.8478,62.4582 42.7198,62.4002 C42.5808,62.3142 42.4248,62.2352 42.2698,62.1592 C41.9558,62.0082 41.6278,61.8722 41.2988,61.7402 C40.6418,61.4712 39.9608,61.2582 39.3048,60.9562 C37.9818,60.3952 36.6638,59.8262 35.3718,59.2102" id="Fill-88" fill="#000"/><path d="M34.9407,65.427 C35.0737,64.815 35.3257,64.244 35.6077,63.69 C35.7687,63.421 35.9247,63.15 36.1277,62.906 C36.3287,62.671 36.5727,62.423 36.8867,62.359 C36.6137,62.509 36.4527,62.775 36.2827,63.021 C36.1207,63.275 35.9667,63.537 35.8277,63.809 C35.5247,64.339 35.2637,64.894 34.9407,65.427" id="Fill-90" fill="#000"/><path d="M37.3845,63.676 C37.3585,63.378 37.4575,63.098 37.5995,62.84 C37.6865,62.72 37.7735,62.596 37.9015,62.508 C38.0235,62.417 38.1765,62.363 38.3235,62.367 C37.8735,62.712 37.7175,63.193 37.3845,63.676" id="Fill-92" fill="#000"/><path d="M34.5833,58.2355 C35.4203,57.9055 36.3643,58.0325 37.2233,58.2255 C38.1013,58.4245 38.9143,58.7865 39.7163,59.1525 C40.5113,59.5395 41.2863,59.9715 42.0163,60.4615 C42.3913,60.7075 42.7243,60.9465 43.1273,61.1615 C43.2263,61.2315 43.3413,61.3375 43.3563,61.5015 C43.3693,61.6695 43.2483,61.7765 43.1543,61.8395 C42.9493,61.9685 42.7213,61.9965 42.5023,62.0065 C42.7113,61.9455 42.9243,61.8665 43.0733,61.7335 C43.2423,61.5865 43.1813,61.4475 43.0003,61.3715 C42.6083,61.2185 42.2003,60.9875 41.8203,60.7925 C41.0483,60.3825 40.2853,59.9725 39.5013,59.6025 C38.7183,59.2325 37.9293,58.8685 37.1193,58.5935 C36.3083,58.3365 35.4533,58.1125 34.5833,58.2355" id="Fill-94" fill="#000"/><path d="M39.365,58.1291 C40.154,58.1731 40.926,58.3391 41.681,58.5881 C42.04,58.7511 42.449,58.8511 42.717,59.2471 C42.863,59.6501 42.895,60.0401 42.842,60.4381 C42.808,60.0561 42.693,59.6531 42.548,59.3391 C42.351,59.0921 41.945,58.9481 41.596,58.8231 C40.873,58.5541 40.114,58.3741 39.365,58.1291" id="Fill-96" fill="#000"/><path d="M42.8455,59.7248 C43.3735,60.1328 43.8365,60.6108 44.3035,61.0808 C44.7505,61.5718 45.1875,62.0678 45.5625,62.6238 C45.0355,62.2088 44.5875,61.7198 44.1205,61.2518 C43.6765,60.7628 43.2275,60.2788 42.8455,59.7248" id="Fill-98" fill="#000"/><path d="M16.0042,14.0754 C16.0042,14.0754 25.7792,19.7154 33.9392,15.6644 C33.9392,15.6644 48.5712,18.8254 50.1612,52.2214 C50.1612,52.2214 45.2922,45.1304 40.9212,52.7754 C40.9212,52.7754 39.9702,51.3184 39.6832,49.0414 C39.3962,46.7644 38.8192,45.6184 38.8192,45.6184 L37.8542,51.6604 C37.8542,51.6604 22.5282,56.0124 15.4762,50.0294 C15.4762,50.0294 15.3472,45.3814 15.1752,44.7794 C15.0032,44.1774 12.6812,39.6624 12.4662,39.6624 C12.2522,39.6624 12.8592,53.8884 12.8592,53.8884 C12.8592,53.8884 7.1772,56.5244 5.5442,58.7574 C5.5442,58.7574 5.0702,59.7414 4.2532,58.1294 C3.4372,56.5174 -0.2348,41.8314 1.4082,32.6534 C3.0502,23.4744 6.6392,18.2034 16.0042,14.0754" id="Fill-100" fill="#FAB120"/><path d="M23.3933,33.5568 C17.1303,33.5568 13.1293,32.5618 12.6453,32.4348 C4.7763,33.3478 1.8933,30.3328 1.7743,30.2038 C1.6813,30.1028 1.6873,29.9458 1.7883,29.8518 C1.8903,29.7578 2.0483,29.7648 2.1413,29.8648 C2.1693,29.8938 5.0123,32.8308 12.6343,31.9328 C12.6653,31.9298 12.6983,31.9308 12.7303,31.9398 C12.7963,31.9578 19.4763,33.7808 29.6353,32.7318 C39.7683,31.6858 42.2093,30.7588 42.2333,30.7488 C42.2963,30.7328 44.6073,30.2268 45.7563,29.2988 C45.8643,29.2128 46.0213,29.2298 46.1083,29.3358 C46.1953,29.4438 46.1783,29.6008 46.0713,29.6878 C44.8283,30.6918 42.4773,31.2038 42.3783,31.2258 C42.3213,31.2518 39.9353,32.1708 29.6863,33.2298 C27.4043,33.4648 25.2943,33.5568 23.3933,33.5568" id="Fill-102" fill="#FEFDFA"/><path d="M24.1448,35.8186 C17.5068,35.8186 13.0478,35.1586 12.6038,35.0896 C5.6088,35.9476 1.4358,32.9836 1.2608,32.8556 C1.1498,32.7746 1.1248,32.6186 1.2058,32.5066 C1.2858,32.3946 1.4428,32.3696 1.5548,32.4516 C1.5958,32.4796 5.7648,35.4316 12.5778,34.5896 C12.6018,34.5886 12.6248,34.5876 12.6488,34.5906 C12.7238,34.6036 20.1318,35.7796 30.4818,35.1176 C40.7198,34.4626 42.3838,33.9006 42.4498,33.8776 C42.4918,33.8626 42.5408,33.8596 42.5838,33.8666 C42.6098,33.8726 45.3668,34.3816 46.9188,32.7166 C47.0128,32.6166 47.1718,32.6116 47.2718,32.7056 C47.3738,32.7986 47.3788,32.9576 47.2848,33.0586 C45.6628,34.7976 43.0108,34.4456 42.5528,34.3686 C42.1518,34.4856 39.9008,35.0156 30.5138,35.6156 C28.2338,35.7616 26.0948,35.8186 24.1448,35.8186" id="Fill-104" fill="#FEFDFA"/><path d="M26.8298,39.0939 C19.3668,39.0939 13.1308,38.2059 12.5998,38.1279 C3.3948,39.3319 0.9108,36.8429 0.8088,36.7379 C0.7138,36.6369 0.7178,36.4789 0.8178,36.3839 C0.9158,36.2869 1.0748,36.2899 1.1698,36.3919 C1.2118,36.4329 3.6778,38.7989 12.5688,37.6279 C12.5918,37.6249 12.6148,37.6249 12.6388,37.6289 C12.8098,37.6549 29.8828,40.1909 41.8898,36.9379 C41.9388,36.9239 41.9908,36.9269 42.0378,36.9429 C42.0718,36.9549 45.5158,38.1149 47.7668,35.7609 C47.8638,35.6609 48.0208,35.6589 48.1208,35.7529 C48.2198,35.8489 48.2238,36.0069 48.1278,36.1069 C45.8168,38.5239 42.5038,37.6149 41.9478,37.4399 C37.2358,38.7049 31.7638,39.0939 26.8298,39.0939" id="Fill-106" fill="#FEFDFA"/><path d="M12.4666,39.6623 C12.2006,37.1593 12.3236,34.6293 12.7366,32.1413 C12.9586,30.8993 13.2346,29.6603 13.6836,28.4723 C14.1186,27.2843 14.6956,26.1223 15.5236,25.1693 C14.9396,26.2853 14.5746,27.4653 14.2416,28.6483 C13.9176,29.8363 13.6796,31.0493 13.4746,32.2663 C13.2556,33.4833 13.0946,34.7133 12.9326,35.9443 L12.4666,39.6623 Z" id="Fill-108" fill="#D19219"/><path d="M38.8191,23.3264 C39.6731,25.0444 40.5371,26.7244 41.5591,28.3394 C42.5631,30.0164 43.0991,32.0014 43.0271,33.9814 C42.9871,34.9704 42.8091,35.9494 42.5091,36.8864 C42.2031,37.8294 41.7801,38.6964 41.3691,39.5514 C40.5521,41.2764 39.7231,42.9984 38.8191,44.6844 C39.4381,42.8724 40.1341,41.0944 40.8401,39.3214 C41.5901,37.5464 42.2461,35.8214 42.2781,33.9564 C42.3611,32.1154 41.8921,30.2764 41.0551,28.6144 C40.1371,26.9394 39.3811,25.1524 38.8191,23.3264" id="Fill-110" fill="#D19219"/></g></g></g><g id="Female Head" transform="translate(111.000000, 63.000000) scale(1 1)"><g id="Female Head/Long Hair 5" stroke="none" stroke-width="1" fill="none" fill-rule="evenodd"><g id="Group-186" transform="translate(8.000000, 8.000000)"><path d="M12.3001,24.0304 C12.3001,24.0304 13.4341,26.2984 15.9141,27.7864 C18.3941,29.2744 21.5121,31.5424 23.0711,31.0464 C24.6311,30.5504 28.7621,27.3844 29.7541,23.8414 C30.7461,20.2984 31.3631,14.3924 30.7251,11.4864 C30.0881,8.5814 26.4731,2.4864 20.0251,2.4864 C13.5751,2.4864 7.8361,9.2894 9.3941,16.8014 C9.3941,16.8014 7.6021,18.9994 9.1361,21.2664 C10.6701,23.5344 12.3001,24.0304 12.3001,24.0304" id="Fill-57" fill="#ffc280"/><path d="M16.1477,19.2823 C16.1477,19.2823 18.9947,19.3523 19.7507,19.9023 C19.7507,19.9023 20.0277,20.0003 19.9207,19.6363 C19.9207,19.6363 20.3287,19.9283 20.3557,19.7693 C20.3817,19.6093 20.1777,18.0683 18.5747,17.8553 C16.9717,17.6433 15.7667,19.1133 16.1477,19.2823" id="Fill-59" fill="#000"/><path d="M28.6204,18.8741 C28.6204,18.8741 26.8144,18.8481 26.0824,19.3961 C26.0824,19.3961 25.8144,19.4941 25.9164,19.1311 C25.9164,19.1311 25.5224,19.4231 25.4964,19.2641 C25.4714,19.1041 26.2054,17.6521 27.7584,17.4391 C29.3104,17.2271 29.7184,18.5851 28.6204,18.8741" id="Fill-61" fill="#000"/><path d="M23.8899,24.2247 C23.8899,24.2247 23.6769,24.4027 23.8899,24.5787 C24.1019,24.7567 25.5019,24.2607 25.8209,23.7997 C26.1399,23.3387 25.9509,23.2867 25.4959,23.5517 C25.0409,23.8177 23.8899,24.2247 23.8899,24.2247" id="Fill-63" fill="#000"/><path d="M21.0198,25.6602 C21.0198,25.6602 20.9318,25.5012 21.6928,25.5012 C22.4548,25.5012 22.3838,25.6422 23.6238,25.6602 C24.8638,25.6782 25.3718,25.6602 24.8878,25.9782 C24.4038,26.2982 24.4388,26.2802 24.3508,26.5282 C24.2618,26.7762 23.1408,27.2192 22.2568,26.9182 C21.3738,26.6162 20.4718,25.8172 21.0198,25.6602" id="Fill-65" fill="#EE4E2F"/><path d="M15.699,15.1007 C15.834,15.0587 15.652,15.3367 16.266,15.2307 C16.88,15.1247 18.557,14.9357 20.069,15.8807 C20.069,15.8807 20.339,15.6677 20.358,15.2667 C20.375,14.8907 17.829,13.6037 15.663,15.0307 C15.515,15.1277 15.561,15.1437 15.699,15.1007" id="Fill-67" fill="#000"/><path d="M28.6204,15.2423 C28.6204,15.2423 27.7224,14.2743 26.2104,14.7223 C24.6994,15.1723 24.8394,15.8563 24.8874,16.0463 C24.9354,16.2343 26.0214,15.3123 27.1554,15.3253 C28.2894,15.3373 28.6204,15.5733 28.6204,15.2423" id="Fill-69" fill="#000"/><path d="M5.0926,37.5304 C4.7386,36.1834 5.5536,35.2624 5.5536,35.2624 C5.5536,35.2624 5.7986,38.7704 6.6506,39.3734 C6.6506,39.3734 5.4466,38.8774 5.0926,37.5304 M3.8456,31.8474 C2.8106,31.1964 2.2586,29.2384 2.2586,29.2384 C4.1716,30.0894 5.0926,32.4994 5.0926,32.4994 C5.0926,32.4994 4.8806,32.4994 3.8456,31.8474 M13.7386,17.8354 C13.8806,15.6084 14.7306,15.3374 16.0766,14.0144 C17.4236,12.6914 18.7666,9.5734 18.7666,9.5734 C17.2586,8.4224 12.8706,5.1274 12.8706,5.1274 C11.5596,5.3214 9.1326,9.1484 9.1326,9.1484 C2.7186,13.5774 3.7816,20.4334 3.7816,20.4334 C1.6556,22.1344 1.0716,25.7494 1.0716,25.7494 C-1.4444,29.0094 1.6376,32.1444 3.0196,32.6584 C4.4016,33.1724 5.1636,34.1994 5.1636,34.1994 C1.7976,37.9554 4.5786,39.1954 7.0416,40.5244 C9.5046,41.8524 10.9686,44.8914 9.4746,46.2384 C7.9806,47.5864 6.4176,45.3624 6.2786,45.4104 C6.1396,45.4584 6.1876,46.0564 6.1876,46.0564 C7.0376,47.2984 8.5356,47.2184 8.5356,47.2184 C6.6066,48.1924 5.9366,46.3994 5.8186,46.4424 C5.7006,46.4854 5.8186,47.0624 5.8186,47.0624 C7.8506,49.1884 9.5336,47.6044 12.0846,44.2514 C14.6356,40.8964 11.7066,36.6444 11.7066,36.6444 C11.7066,36.6444 12.1326,34.3294 14.9196,32.7224 C17.7066,31.1164 17.8956,27.7624 16.2526,25.1644 C14.6096,22.5654 13.5966,20.0614 13.7386,17.8354" id="Fill-71" fill="#110b05"/><g id="Group-99" transform="translate(13.000000, 0.000000)" fill="#110b05"><path d="M24.4783,53.0851 C22.8483,54.0071 22.8843,53.4041 23.4513,51.9161 C24.0183,50.4281 22.9553,48.6561 22.9553,48.6561 C24.0693,48.9811 26.1083,52.1641 24.4783,53.0851 M22.8253,54.7151 C22.5653,54.7151 22.8253,54.2421 22.8253,54.2421 C22.8253,54.2421 23.3923,54.2671 23.7933,54.2421 C23.7933,54.2421 23.0843,54.7151 22.8253,54.7151 M20.3323,47.3511 C19.6953,46.8251 20.0843,45.5731 20.0843,45.5731 C20.0843,45.5731 19.9873,46.6461 21.1243,47.5231 C22.2613,48.3981 22.2813,49.7551 22.2813,49.7551 C21.9983,48.9751 20.9703,47.8771 20.3323,47.3511 M19.0923,36.2901 C17.8523,35.2271 17.8173,33.4901 17.8173,33.4901 C20.7583,39.2311 23.6033,36.0541 23.2973,39.8191 C23.1323,41.8441 21.5733,42.4201 21.5733,42.4201 C23.6633,39.5151 20.3323,37.3531 19.0923,36.2901 M26.2143,46.2111 C24.4783,44.7941 23.5923,45.8211 21.8773,45.3601 C20.1613,44.9001 21.0773,43.8731 21.0773,43.8731 C21.0773,43.8731 24.4073,42.5621 24.4363,38.4161 C24.4663,34.2711 20.4393,34.8731 20.0143,33.2711 C19.5883,31.6691 25.6123,29.4861 24.2303,25.8731 C22.8483,22.2591 20.6873,22.0471 20.6873,22.0471 C20.4743,21.4451 20.9703,20.9821 23.0613,19.0341 C25.1513,17.0851 19.5533,11.3451 19.5533,11.3451 C19.5533,11.3451 18.4903,8.2981 17.9853,6.8101 C17.4803,5.3211 15.0183,3.7271 15.0183,3.7271 C8.9943,-1.4109 4.4233,0.8561 4.4233,0.8561 C-0.1477,1.2261 0.1003,5.1271 0.1003,5.1271 C0.8803,5.5691 3.2183,7.0931 4.3883,8.0151 C5.5573,8.9361 5.9543,9.3591 5.9543,9.3591 C10.3483,4.9461 12.1243,8.9591 13.6123,12.5731 C15.1003,16.1881 17.2263,17.4171 17.2263,17.4171 C17.2263,17.4171 17.5103,21.7151 16.2393,24.9041 C14.9693,28.0931 10.9973,30.6091 9.9603,30.9511 C8.9243,31.2931 7.8533,30.6011 7.8533,30.6011 C7.1723,32.2571 7.8483,35.4631 9.5963,36.3851 C11.3443,37.3061 11.5983,38.7311 11.5983,38.7311 C10.7173,45.0221 12.1473,44.6051 14.0373,46.9901 C15.9273,49.3771 13.1403,51.6201 12.3363,51.6451 C11.5333,51.6681 11.5103,51.9511 11.5103,51.9511 C15.0063,52.0931 15.9743,48.8811 15.9743,48.8811 C20.4153,52.7311 13.3173,54.7151 14.5213,58.6121 C15.7263,62.5111 18.7383,62.8471 18.7383,62.6161 C18.7383,62.3871 17.9853,62.1911 17.9853,62.1911 C14.0933,60.2071 17.4983,57.0891 19.7663,56.7341 C22.0333,56.3811 22.1753,55.1761 22.1753,55.1761 C24.1953,55.3171 25.7893,53.0501 25.7893,53.0501 C28.6593,51.6331 27.9513,47.6291 26.2143,46.2111" id="Fill-97"/></g><g id="Group" transform="translate(1.428000, 0.358700)" fill="#6F3C00"><path d="M15.2515,8.0096 C14.5525,8.6346 13.9505,9.3436 13.4615,10.1156 C12.9815,10.8926 12.5785,11.7166 12.3535,12.5966 C12.1265,13.4706 11.9755,14.3756 12.0045,15.2926 C11.9915,16.2126 12.1515,17.1246 12.3005,18.0546 C12.1375,17.6156 11.9775,17.1706 11.8485,16.7156 C11.7725,16.2496 11.6325,15.7886 11.6205,15.3106 C11.4985,14.3596 11.6415,13.3906 11.8725,12.4606 C12.3905,10.6116 13.6185,8.9496 15.2515,8.0096" id="Fill-73"/><path d="M12.8775,6.8055 C12.1375,7.8075 11.5395,8.8985 11.1105,10.0455 C10.6845,11.1925 10.4085,12.3935 10.3675,13.6095 C10.3215,14.8185 10.4185,16.0475 10.7645,17.2235 C11.0535,18.4185 11.5925,19.5335 12.1335,20.6595 C11.7895,20.1425 11.4325,19.6235 11.1295,19.0745 C10.8785,18.4995 10.5595,17.9475 10.3965,17.3335 C9.9505,16.1445 9.8295,14.8505 9.8685,13.5835 C9.9245,12.3115 10.2305,11.0505 10.7565,9.9005 C11.2735,8.7465 11.9785,7.6755 12.8775,6.8055" id="Fill-75"/><path d="M11.7891,5.6355 C10.9901,6.6815 10.3441,7.8285 9.8761,9.0365 C9.4111,10.2425 9.1151,11.5175 9.1011,12.8035 C9.0581,14.0805 9.2041,15.3815 9.6281,16.6065 C9.7701,17.2425 10.0921,17.8155 10.3301,18.4225 C10.5971,19.0185 10.9541,19.5695 11.2471,20.1635 C10.8611,19.6335 10.4581,19.1025 10.1121,18.5365 C9.8251,17.9405 9.4571,17.3735 9.2641,16.7305 C8.7501,15.4895 8.5941,14.1225 8.6021,12.7845 C8.7011,10.0895 9.8951,7.4735 11.7891,5.6355" id="Fill-77"/><path d="M7.6333,9.3924 C7.2783,10.0414 6.9433,10.6954 6.6853,11.3764 C6.4103,12.0474 6.1893,12.7424 6.1093,13.4374 C6.0323,14.1274 6.0783,14.8284 6.4173,15.3654 C6.7423,15.8824 7.3273,16.4084 7.8533,16.8784 C8.9313,17.8534 10.0923,18.7644 11.1813,19.7714 C12.2283,20.7824 13.4593,21.8004 13.9163,23.2534 C13.5803,22.5924 13.0503,22.0834 12.5043,21.6034 C11.9683,21.1114 11.3903,20.6604 10.8103,20.2124 C9.6453,19.3194 8.4733,18.4264 7.3523,17.4364 C6.8023,16.9114 6.2493,16.4554 5.8003,15.7124 C5.3923,14.9604 5.3723,14.0934 5.5423,13.3434 C5.8793,11.8254 6.6773,10.5204 7.6333,9.3924" id="Fill-79"/><path d="M6.5684,11.1971 C5.4824,12.8811 4.9674,14.8651 5.0204,16.8011 C5.0734,17.7661 5.1654,18.7621 5.6194,19.5431 C6.0664,20.3291 6.8444,20.9171 7.6774,21.4101 C8.5084,21.9141 9.4044,22.3411 10.3054,22.7561 C11.1934,23.1611 12.1704,23.5791 12.9944,24.2011 C13.8284,24.8111 14.5524,25.5941 15.0284,26.5141 C15.4894,27.4331 15.7064,28.4901 15.5344,29.4821 C15.5434,27.4501 14.2864,25.6871 12.6654,24.6761 C11.8394,24.1621 10.9654,23.7881 10.0174,23.4051 C9.0934,23.0031 8.1764,22.5731 7.2894,22.0511 C6.4254,21.5201 5.5314,20.8661 4.9984,19.8851 C4.4874,18.8901 4.4154,17.8191 4.4424,16.8011 C4.5074,14.7461 5.2224,12.7021 6.5684,11.1971" id="Fill-81"/><path d="M8.1851,22.1111 C9.1101,23.5021 9.9721,25.0701 9.9231,26.8701 C9.9101,27.3191 9.7381,27.7721 9.4771,28.1541 C9.2071,28.5061 8.9041,28.8201 8.5881,29.1101 C7.9621,29.6931 7.2941,30.2121 6.7591,30.8171 C6.4991,31.1191 6.2731,31.4431 6.1781,31.7931 C6.0921,32.1431 6.1931,32.5011 6.3741,32.8321 C6.7831,33.4801 7.4961,33.9901 8.1131,34.5491 C8.7481,35.0981 9.4221,35.6031 10.0611,36.1721 C10.7081,36.7331 11.1971,37.5241 11.2831,38.3721 C11.0791,37.5411 10.5811,36.8451 9.9021,36.3571 C9.2471,35.8411 8.5441,35.3671 7.8721,34.8491 C7.2101,34.3241 6.5091,33.8361 5.9841,33.0661 C5.7511,32.6731 5.6001,32.1731 5.7121,31.6841 C5.8321,31.2101 6.1011,30.8271 6.3841,30.4881 C6.9811,29.8381 7.6661,29.3311 8.2821,28.7741 C8.5941,28.4991 8.8821,28.2081 9.1321,27.8941 C9.3411,27.5811 9.5061,27.2321 9.5421,26.8321 C9.6451,26.0411 9.4391,25.2081 9.1871,24.4211 C8.9321,23.6251 8.5791,22.8581 8.1851,22.1111" id="Fill-83"/><path d="M2.35347265,20.075 C2.5555,21.043 3.0585,21.909 3.7315,22.574 C4.4145,23.211 5.2935,23.722 6.0495,24.375 C6.8075,25.017 7.5575,25.755 7.9655,26.721 C8.1805,27.193 8.2485,27.734 8.1985,28.242 C8.1475,28.76 7.9065,29.222 7.6435,29.636 C8.0435,28.726 8.0775,27.707 7.6165,26.882 C7.1755,26.054 6.4735,25.374 5.7285,24.758 C5.0005,24.109 4.1535,23.614 3.4525,22.836 C2.7845,22.063 2.3495,21.074 2.35347265,20.075" id="Fill-85"/><path d="M3.419,22.5105 C3.998,23.3125 4.516,24.1575 4.964,25.0475 C5.188,25.4895 5.353,25.9865 5.493,26.4485 C5.646,26.9155 5.802,27.3885 5.935,27.8685 C6.211,28.8275 6.361,29.8405 6.298,30.8645 C6.257,31.3745 6.152,31.8845 5.97,32.3715 C5.75,32.8765 5.578,33.2405 5.528,33.7095 C5.412,34.6145 5.74,35.5575 6.26,36.3425 C6.776,37.1385 7.503,37.8035 8.326,38.2615 C8.531,38.3545 8.755,38.4625 9.002,38.5965 C9.222,38.7445 9.425,38.9155 9.593,39.1135 C9.931,39.5055 10.176,39.9555 10.373,40.4165 C10.739,41.3515 10.955,42.3285 11.038,43.3145 C10.844,42.3475 10.579,41.3905 10.149,40.5175 C9.722,39.6345 9.138,38.8745 8.156,38.6065 C7.224,38.1585 6.459,37.4375 5.881,36.5945 C5.311,35.7565 4.913,34.7225 5.032,33.6515 C5.084,33.1305 5.347,32.5915 5.526,32.1985 C5.696,31.7625 5.8,31.2995 5.846,30.8265 C5.925,29.8775 5.776,28.9125 5.564,27.9625 C5.456,27.4875 5.324,27.0145 5.192,26.5375 C5.068,26.0485 4.939,25.6015 4.742,25.1475 C4.376,24.2395 3.902,23.3715 3.419,22.5105" id="Fill-87"/><path d="M7.6118,38.0574 C8.1398,38.6784 8.5448,39.3944 8.8798,40.1414 C9.2128,40.8904 9.4508,41.6914 9.5458,42.5194 C9.6258,43.3474 9.5648,44.2034 9.2868,44.9954 C9.0078,45.7924 8.4838,46.4674 7.8698,46.9924 C8.3328,46.3234 8.7348,45.6424 8.9198,44.8824 C9.0908,44.1254 9.1328,43.3494 9.0488,42.5744 C8.9718,41.7974 8.7608,41.0354 8.5228,40.2804 C8.2708,39.5274 7.9648,38.7864 7.6118,38.0574" id="Fill-89"/><path d="M8.8817842e-15,23.9637 C0.57,25.3157 1.309,26.6047 2.312,27.5917 C2.575,27.8347 2.832,28.0277 3.133,28.2537 C3.444,28.4787 3.737,28.7337 4.008,29.0147 C4.55,29.5737 4.969,30.2967 5.143,31.0987 C5.286,31.9067 5.149,32.7597 4.789,33.4637 C4.453,34.1687 3.863,34.7767 3.461,35.2767 C3.066,35.8237 2.85,36.4997 2.989,37.1747 C3.089,37.8597 3.511,38.4887 4.019,39.0147 C3.401,38.6137 2.878,38.0137 2.632,37.2627 C2.387,36.5037 2.575,35.6377 2.976,34.9647 C3.42,34.2707 3.878,33.8117 4.146,33.1617 C4.436,32.5487 4.525,31.8787 4.407,31.2407 C4.28,30.6047 3.947,30.0007 3.485,29.4917 C3.26,29.2337 3.008,28.9917 2.733,28.7737 C2.453,28.5497 2.145,28.2737 1.897,27.9887 C0.893,26.8217 0.28,25.4137 8.8817842e-15,23.9637" id="Fill-91"/><path d="M9.7417,26.2185 C10.4127,26.4325 10.9897,26.9015 11.4357,27.4595 C11.8907,28.0205 12.1767,28.7035 12.3427,29.4005 C12.5137,30.1015 12.5027,30.8225 12.4387,31.5245 C12.3847,31.8725 12.3177,32.2185 12.2497,32.5605 C12.1377,32.8945 12.0417,33.2295 11.9157,33.5535 C11.9727,32.8555 12.0477,32.1785 12.0547,31.5005 C12.0267,30.8265 12.0247,30.1525 11.8547,29.5105 C11.5737,28.2235 10.8847,27.0195 9.7417,26.2185" id="Fill-93"/><path d="M9.2568,24.2576 C10.8698,24.6796 12.1928,25.9716 12.9498,27.4756 C13.2988,28.2446 13.5648,29.0596 13.6328,29.8956 C13.7028,30.3086 13.6628,30.7306 13.6698,31.1406 C13.6238,31.5536 13.5738,31.9636 13.4908,32.3636 C13.3638,31.5486 13.2498,30.7606 13.0568,29.9966 C12.8788,29.2306 12.6038,28.5026 12.2768,27.8056 C11.9438,27.1106 11.5068,26.4706 11.0068,25.8726 C10.4988,25.2836 9.9298,24.7256 9.2568,24.2576" id="Fill-95"/><path d="M15.96,7.656 C15.695,6.916 15.661,6.102 15.768,5.315 C15.868,4.522 16.15,3.757 16.54,3.057 C16.963,2.378 17.467,1.748 18.082,1.246 C18.376,0.981 18.717,0.775 19.03,0.543 C19.375,0.352 19.719,0.166 20.07,0 C19.468,0.5 18.867,0.973 18.345,1.526 C17.817,2.071 17.359,2.669 16.972,3.307 C16.235,4.603 15.841,6.102 15.96,7.656" id="Fill-102"/><path d="M17.791,8.7439 C17.368,7.4979 17.205,6.1059 17.6,4.7789 C17.97,3.4199 19.307,2.4399 20.656,2.2059 C20.999,2.1599 21.333,2.0879 21.686,2.0649 C22.045,2.0479 22.407,2.0909 22.759,2.1769 C23.464,2.3569 24.091,2.7569 24.601,3.2349 C25.619,4.2139 26.267,5.4399 26.809,6.6679 C27.824,9.1639 28.409,11.7669 28.989,14.3389 C29.133,14.9809 29.279,15.6239 29.458,16.2479 C29.632,16.8779 29.851,17.4789 30.3,17.8839 C30.717,18.3259 31.418,18.3219 31.992,18.0479 C32.58,17.7899 33.102,17.3659 33.57,16.9039 C33.161,17.4209 32.682,17.9039 32.079,18.2259 C31.52,18.5709 30.639,18.6749 30.065,18.1669 C29.489,17.7049 29.216,17.0139 29.007,16.3919 C28.788,15.7569 28.608,15.1169 28.43,14.4779 C27.733,11.9289 27.153,9.3469 26.12,6.9609 C25.622,5.7719 25.016,4.6049 24.131,3.7279 C23.687,3.2989 23.167,2.9609 22.591,2.8019 C22.019,2.6239 21.4,2.7019 20.764,2.7689 C19.524,2.9319 18.366,3.6889 17.944,4.9019 C17.464,6.0849 17.528,7.4619 17.791,8.7439" id="Fill-104"/><path d="M26.292,6.4158 C27.297,7.0428 27.996,8.0868 28.444,9.1858 C28.929,10.2938 28.994,11.5208 29.16,12.6478 C29.329,13.7868 29.526,14.9398 30.017,15.9448 C30.264,16.4408 30.637,16.8798 31.147,17.0868 C31.653,17.3158 32.252,17.2838 32.826,17.1848 C32.282,17.3918 31.664,17.4908 31.063,17.3158 C30.462,17.1328 29.992,16.6528 29.682,16.1338 C29.061,15.0718 28.851,13.8768 28.666,12.7198 C28.505,11.5418 28.461,10.3998 28.085,9.3168 C27.727,8.2418 27.161,7.2008 26.292,6.4158" id="Fill-106"/><path d="M18.6484,8.0096 C18.5524,7.3236 18.6274,6.6206 18.8134,5.9416 C18.9984,5.2616 19.3554,4.6076 19.8844,4.1006 C20.4144,3.6016 21.1154,3.2606 21.8314,3.2146 C22.1844,3.1436 22.5404,3.2126 22.8874,3.2146 C23.2314,3.2786 23.5684,3.3626 23.8974,3.4566 C23.2064,3.4556 22.5324,3.4286 21.8974,3.5936 C21.2584,3.7206 20.6804,4.0276 20.2274,4.4626 C19.7634,4.8926 19.4314,5.4596 19.1754,6.0656 C18.9284,6.6766 18.7584,7.3326 18.6484,8.0096" id="Fill-108"/><path d="M24.7007,3.8279 C24.9137,3.5829 25.2437,3.4419 25.5747,3.4089 C25.9077,3.3719 26.2437,3.4309 26.5557,3.5299 C26.8677,3.6409 27.1587,3.7899 27.4287,3.9709 C27.6967,4.1519 27.9367,4.3689 28.1597,4.5989 L27.3297,4.1359 C27.0507,3.9949 26.7727,3.8519 26.4777,3.7669 C26.1917,3.6549 25.8877,3.6059 25.5857,3.5999 C25.2857,3.5999 24.9717,3.6559 24.7007,3.8279" id="Fill-110"/><path d="M20.7158,7.076 C20.8308,6.13 21.4098,5.206 22.2928,4.736 C22.7368,4.523 23.2218,4.386 23.7108,4.385 C23.9538,4.37 24.1948,4.415 24.4338,4.429 L25.1328,4.599 C24.6558,4.557 24.1848,4.527 23.7228,4.577 C23.2588,4.616 22.8118,4.745 22.4098,4.957 C21.9968,5.154 21.6558,5.476 21.3718,5.839 C21.0918,6.205 20.8668,6.625 20.7158,7.076" id="Fill-112"/><path d="M21.023,7.0662 C21.501,6.2532 22.274,5.5892 23.198,5.2782 C23.662,5.1312 24.166,5.0982 24.64,5.1962 C25.123,5.2702 25.549,5.5142 25.94,5.7712 C25.503,5.5942 25.068,5.4212 24.611,5.3862 C24.161,5.3332 23.7,5.3622 23.273,5.5162 C22.838,5.6432 22.436,5.8702 22.061,6.1352 C21.69,6.4062 21.335,6.7122 21.023,7.0662" id="Fill-114"/><path d="M22.0078,7.3221 C22.3028,6.8861 22.7148,6.5101 23.2228,6.3031 C23.7268,6.0861 24.3188,6.0891 24.8368,6.2681 C25.3618,6.4501 25.7858,6.8081 26.1658,7.1791 C26.3348,7.3861 26.5178,7.5811 26.6718,7.7961 L27.0918,8.4681 C26.7488,8.0651 26.4078,7.6721 26.0308,7.3161 C25.6388,6.9881 25.2378,6.6491 24.7538,6.5041 C24.2868,6.3231 23.7678,6.3211 23.2898,6.4821 C22.8118,6.6411 22.3728,6.9451 22.0078,7.3221" id="Fill-116"/><path d="M28.9004,9.8631 C29.7744,10.1811 30.5814,10.6661 31.3324,11.2221 C32.0854,11.7801 32.7544,12.4541 33.3274,13.2051 C33.9024,13.9561 34.3224,14.8271 34.5834,15.7321 C34.8714,16.6371 34.8764,17.6011 34.7794,18.5151 C34.6674,17.5951 34.5674,16.6891 34.2174,15.8511 C33.8854,15.0191 33.4834,14.2111 32.9264,13.5031 C31.8484,12.0621 30.4484,10.8711 28.9004,9.8631" id="Fill-118"/><path d="M29.4663,12.2264 C30.1023,12.5884 30.6703,13.0554 31.2053,13.5554 C31.7403,14.0564 32.2203,14.6194 32.6423,15.2264 C33.0493,15.8424 33.4033,16.5014 33.6323,17.2094 C33.8483,17.9214 33.9493,18.6694 33.8613,19.3974 C33.7413,18.6744 33.5493,17.9954 33.2723,17.3454 C32.9723,16.7054 32.6283,16.0924 32.2293,15.5074 C31.4283,14.3374 30.4763,13.2744 29.4663,12.2264" id="Fill-120"/><path d="M28.8252,18.0545 C29.2792,18.7755 29.7682,19.4085 30.3182,20.0015 C30.8642,20.5985 31.4752,21.1185 32.1172,21.6885 C31.2882,21.4645 30.5452,20.9675 29.9512,20.3405 C29.6612,20.0205 29.4022,19.6685 29.2102,19.2815 C29.0162,18.8965 28.8582,18.4865 28.8252,18.0545" id="Fill-122"/><path d="M28.7485,20.075 C29.0515,20.959 29.6075,21.712 30.2565,22.337 C30.9095,22.964 31.6875,23.429 32.4855,23.917 C33.2585,24.41 34.1265,24.918 34.6645,25.766 C35.1965,26.605 35.3455,27.579 35.3505,28.509 C35.1425,27.601 34.8905,26.691 34.3495,25.987 C33.8085,25.287 33.0125,24.831 32.2225,24.342 C31.4415,23.85 30.6105,23.337 29.9805,22.601 C29.3515,21.887 28.8515,21.016 28.7485,20.075" id="Fill-124"/><path d="M28.5586,21.6883 C28.9856,22.4523 29.5876,23.0583 30.1976,23.6313 C30.8136,24.1943 31.5176,24.6813 32.1906,25.2513 C32.8506,25.8233 33.5206,26.4423 33.9806,27.2513 C34.4826,28.0363 34.5516,29.1073 34.1386,29.8853 C34.2546,29.0013 33.9906,28.2063 33.4896,27.5693 C32.9966,26.9243 32.3596,26.3713 31.7066,25.8233 C31.0686,25.2623 30.3586,24.7333 29.7786,24.0373 C29.2016,23.3613 28.7146,22.5623 28.5586,21.6883" id="Fill-126"/><path d="M27.4121,25.3767 C28.0881,25.5497 28.6991,25.9237 29.2461,26.3587 C29.8001,26.7947 30.2651,27.3337 30.6711,27.9067 C31.0511,28.4977 31.3851,29.1197 31.6051,29.7837 C31.7271,30.1107 31.8001,30.4537 31.8961,30.7857 C31.9561,31.1287 32.0141,31.4707 32.0491,31.8137 C31.7831,31.1727 31.5491,30.5367 31.2491,29.9317 C30.9551,29.3247 30.6271,28.7427 30.2571,28.1887 C29.5011,27.0937 28.5821,26.1057 27.4121,25.3767" id="Fill-128"/><path d="M26.7671,26.4705 C27.4601,26.4585 28.1231,26.8245 28.6361,27.2955 C29.1641,27.7675 29.5291,28.3865 29.8101,29.0185 C30.0731,29.6645 30.2741,30.2775 30.5191,30.9025 C30.6341,31.2145 30.7651,31.5205 30.9071,31.8195 C31.0431,32.1205 31.1841,32.4275 31.4141,32.6715 C30.8261,32.2935 30.5011,31.6455 30.1691,31.0625 C29.8401,30.4715 29.6041,29.8085 29.3511,29.2155 C29.0981,28.6175 28.7791,28.0505 28.3611,27.5625 C27.9431,27.0815 27.4161,26.6645 26.7671,26.4705" id="Fill-130"/><path d="M26.2354,27.2146 C27.2144,28.1836 28.0604,29.2876 28.7454,30.4976 C29.0974,31.0986 29.3884,31.7356 29.6484,32.3926 C29.8894,33.1036 30.0464,33.6306 30.4094,34.1346 C31.0734,35.1566 32.2324,35.7476 33.4714,36.2866 C33.7834,36.4386 34.1074,36.5526 34.4504,36.8316 C34.7174,37.0866 34.9574,37.3456 35.1674,37.6396 C35.5564,38.2326 35.8794,38.9196 35.8224,39.6206 C35.6544,38.9546 35.2694,38.3976 34.7974,37.9516 C34.5654,37.7276 34.3074,37.5186 34.0494,37.3416 C33.8374,37.2236 33.5084,37.1106 33.1914,37.0106 C32.5414,36.8106 31.8714,36.5576 31.2324,36.1996 C30.6014,35.8316 30.0184,35.3236 29.5844,34.6986 C29.1534,34.0856 28.9224,33.2836 28.7554,32.7016 C28.5644,32.0736 28.3064,31.4626 28.0494,30.8466 C27.5064,29.6266 26.9034,28.4136 26.2354,27.2146" id="Fill-132"/><path d="M26.2354,27.9236 C25.6714,29.3396 25.1914,30.7846 24.8664,32.2556 C24.5784,33.7106 24.3604,35.2716 24.8594,36.6276 C25.0614,37.3336 25.5794,37.8316 26.1664,38.2426 L28.1204,39.4156 C28.7634,39.8226 29.4464,40.1826 30.0184,40.7416 C30.2954,41.0276 30.4984,41.4046 30.5434,41.7976 C30.5954,42.1886 30.5404,42.5726 30.4714,42.9466 C30.4874,42.5666 30.4944,42.1826 30.4134,41.8216 C30.3324,41.4596 30.1234,41.1526 29.8474,40.9176 C29.2944,40.4406 28.5944,40.1136 27.9304,39.7506 C27.2534,39.4026 26.5914,39.0176 25.9314,38.6316 C25.2704,38.2036 24.6274,37.5896 24.3904,36.8006 C24.1344,36.0366 24.0544,35.2326 24.1164,34.4556 C24.1514,33.6746 24.2984,32.9106 24.4944,32.1656 C24.9054,30.6816 25.4844,29.2536 26.2354,27.9236" id="Fill-134"/><path d="M25.0498,30.8943 C25.1158,32.0403 25.2968,33.1683 25.6518,34.2043 C25.8438,34.7133 26.0698,35.2063 26.4028,35.6043 C26.7158,36.0273 27.1248,36.2743 27.6348,36.6053 C28.5768,37.2663 29.5258,37.9593 30.2838,38.8933 C30.6558,39.3573 30.9808,39.9023 31.0828,40.5133 C31.1758,41.1233 31.0568,41.7383 30.7708,42.2383 C30.9008,41.6763 30.9218,41.1053 30.7298,40.6033 C30.5628,40.0973 30.2208,39.6683 29.8468,39.2773 C29.0738,38.5043 28.1448,37.8593 27.2128,37.2243 C26.7718,36.9303 26.1908,36.5593 25.8358,36.0353 C25.4718,35.5243 25.2308,34.9543 25.0908,34.3733 C24.8008,33.2133 24.8248,32.0243 25.0498,30.8943" id="Fill-136"/><path d="M29.3892,33.5535 C29.4312,34.6095 29.8082,35.6235 30.3542,36.5015 C30.6182,36.9485 30.9642,37.3305 31.2632,37.7945 C31.5552,38.2515 31.7792,38.7705 31.8592,39.3255 C32.0352,40.4595 31.5602,41.5365 31.0542,42.4615 C30.5342,43.4065 29.8862,44.2515 29.3362,45.1325 C28.7602,45.9895 28.3272,46.9515 28.8172,47.8625 C29.2132,48.7745 30.0322,49.5105 30.5542,50.4625 C31.1052,51.3825 31.5022,52.4225 31.5722,53.5045 C31.6312,54.5905 31.2842,55.6575 30.7062,56.5355 C31.2152,55.6125 31.4652,54.5505 31.3282,53.5245 C31.2112,52.4985 30.7962,51.5275 30.2272,50.6655 C29.6882,49.7905 28.8882,49.0745 28.4022,48.0495 C28.1532,47.5515 28.0522,46.9225 28.2092,46.3595 C28.3512,45.7965 28.6332,45.3195 28.9142,44.8655 C29.4952,43.9645 30.1472,43.1385 30.6582,42.2395 C31.1702,41.3495 31.5802,40.3675 31.4792,39.3725 C31.4302,38.8795 31.2502,38.3995 30.9932,37.9575 C30.7432,37.5215 30.3922,37.1005 30.1432,36.6225 C29.6502,35.6725 29.3492,34.6115 29.3892,33.5535" id="Fill-138"/><path d="M31.5391,38.7459 C32.0881,39.3439 32.3831,40.1829 32.3421,41.0219 C32.2921,41.8739 31.8581,42.6389 31.4271,43.3169 C31.0021,44.0089 30.5071,44.6509 30.2171,45.3649 C29.9011,46.0649 29.8861,46.8499 30.3211,47.4509 C31.1671,48.6369 32.9091,49.4489 33.4201,51.1619 C33.8471,52.8609 33.2111,54.4639 32.6961,55.9709 C32.8721,55.1799 33.0681,54.3949 33.1661,53.5999 C33.2801,52.8119 33.3011,51.9999 33.0541,51.2779 C32.8011,50.5599 32.2781,49.9719 31.6851,49.4409 C31.1131,48.8899 30.4211,48.4589 29.9011,47.7219 C29.3741,46.9829 29.4271,45.9319 29.7991,45.1869 C30.1431,44.4089 30.6411,43.7549 31.1091,43.1029 C31.5751,42.4539 32.0041,41.7799 32.1001,40.9999 C32.2151,40.2279 31.9971,39.4099 31.5391,38.7459" id="Fill-140"/><path d="M28.3662,52.8894 C28.5612,53.7684 28.6062,54.6474 28.6162,55.5264 C28.6072,56.4064 28.5622,57.2854 28.3662,58.1634 C28.1702,57.2844 28.1252,56.4054 28.1162,55.5264 C28.1262,54.6474 28.1722,53.7684 28.3662,52.8894" id="Fill-142"/><path d="M26.5752,55.3904 C26.7542,56.0074 26.9002,56.5734 27.0992,57.1304 C27.1882,57.4114 27.2982,57.6844 27.4052,57.9634 C27.5092,58.2454 27.6472,58.5134 27.7592,58.8214 C27.2142,58.4694 26.8342,57.9004 26.6262,57.2914 C26.4272,56.6804 26.3632,56.0074 26.5752,55.3904" id="Fill-144"/><path d="M31.3379,43.868 C31.6699,44.406 32.0229,44.916 32.4069,45.395 C32.7959,45.88 33.1989,46.309 33.6499,46.759 C34.0719,47.215 34.5399,47.707 34.7569,48.36 C34.9709,49.009 34.9239,49.66 34.8229,50.282 C34.7189,49.659 34.6569,49.027 34.4009,48.503 C34.1429,47.985 33.7199,47.552 33.2889,47.103 C32.8609,46.661 32.4139,46.165 32.0939,45.615 C31.7609,45.07 31.4809,44.489 31.3379,43.868" id="Fill-146"/><path d="M33.0811,46.0652 C33.8651,45.8812 34.6971,45.9052 35.4991,46.1062 C36.3021,46.3032 37.0711,46.7742 37.5801,47.4632 C38.0811,48.1582 38.3291,48.9892 38.3831,49.8072 C38.3981,50.2152 38.3691,50.6242 38.3491,51.0262 C38.2661,51.4232 38.1991,51.8202 38.1011,52.2082 C38.0871,51.8032 38.1041,51.4082 38.1041,51.0142 C38.0731,50.6232 38.0601,50.2302 38.0001,49.8492 C37.8621,49.0912 37.6231,48.3622 37.1811,47.7652 C36.7481,47.1602 36.0991,46.7392 35.3841,46.4712 C34.6641,46.2122 33.8791,46.0862 33.0811,46.0652" id="Fill-148"/><path d="M34.5269,47.908 C35.4799,47.83 36.3929,48.39 37.0059,49.098 C37.3169,49.461 37.5519,49.876 37.7569,50.299 L38.0079,50.956 L38.1779,51.637 C37.8119,50.781 37.4149,49.944 36.8159,49.262 C36.5289,48.913 36.1869,48.613 35.8029,48.376 C35.4179,48.145 34.9899,47.96 34.5269,47.908" id="Fill-150"/><path d="M23.6406,29.6355 C23.2466,30.5125 22.9156,31.4115 22.7256,32.3385 C22.5166,33.2565 22.4216,34.2015 22.5436,35.1095 C22.6646,36.0145 22.9966,36.8775 23.5836,37.5505 C24.1386,38.2025 24.9696,38.7845 25.6536,39.4995 C27.0086,40.9105 28.0746,42.7895 28.1006,44.8205 C28.1246,45.8205 27.9366,46.8065 27.6126,47.7285 C27.2496,48.6385 26.7876,49.4935 26.2356,50.2815 C27.0676,48.5625 27.7086,46.7015 27.5246,44.8535 C27.3676,43.0105 26.4016,41.3505 25.1126,40.0185 C24.4836,39.3325 23.7076,38.8125 23.0306,37.9925 C22.3896,37.1885 22.0166,36.1705 21.9726,35.1655 C21.8656,33.1445 22.5936,31.2395 23.6406,29.6355" id="Fill-152"/><path d="M23.2236,39.6209 C23.5186,40.4899 23.9416,41.2969 24.4526,42.0309 C24.9876,42.7429 25.5526,43.5169 25.9516,44.3609 C26.3526,45.2059 26.6326,46.1379 26.6366,47.0889 C26.6466,48.0389 26.3916,48.9709 25.9396,49.7709 C26.2016,48.8909 26.3406,47.9909 26.2536,47.1079 C26.1616,46.2279 25.8936,45.3779 25.5006,44.5769 C25.1256,43.7589 24.6146,43.0399 24.1266,42.2389 C23.6616,41.4289 23.3156,40.5429 23.2236,39.6209" id="Fill-154"/></g></g></g></g><g id="Female Accesories" transform="translate(123.000000, 72.000000) scale(1 1)"><g id="Female Accesories/Glasses 1" stroke="none" stroke-width="1" fill="none" fill-rule="evenodd"><g id="Accesories" transform="translate(8.000000, 15.000000)" fill="#1E2214"><path d="M10.0980239,0.625 L5.09802389,0.625 C4.33863236,0.625 3.72302389,1.24060847 3.72302389,2 L3.72302389,5 C3.72302389,5.75939153 4.33863236,6.375 5.09802389,6.375 L10.0980239,6.375 C10.8574154,6.375 11.4730239,5.75939153 11.4730239,5 L11.4730239,2 C11.4730239,1.24060847 10.8574154,0.625 10.0980239,0.625 Z M5.09802389,1.375 L10.0980239,1.375 C10.4432019,1.375 10.7230239,1.65482203 10.7230239,2 L10.7230239,5 C10.7230239,5.34517797 10.4432019,5.625 10.0980239,5.625 L5.09802389,5.625 C4.75284592,5.625 4.47302389,5.34517797 4.47302389,5 L4.47302389,2 C4.47302389,1.65482203 4.75284592,1.375 5.09802389,1.375 Z" id="Rectangle" fill-rule="nonzero"/><path d="M18.0980239,0.625 L14.0980239,0.625 C13.3386324,0.625 12.7230239,1.24060847 12.7230239,2 L12.7230239,5 C12.7230239,5.75939153 13.3386324,6.375 14.0980239,6.375 L18.0980239,6.375 C18.8574154,6.375 19.4730239,5.75939153 19.4730239,5 L19.4730239,2 C19.4730239,1.24060847 18.8574154,0.625 18.0980239,0.625 Z M14.0980239,1.375 L18.0980239,1.375 C18.4432019,1.375 18.7230239,1.65482203 18.7230239,2 L18.7230239,5 C18.7230239,5.34517797 18.4432019,5.625 18.0980239,5.625 L14.0980239,5.625 C13.7528459,5.625 13.4730239,5.34517797 13.4730239,5 L13.4730239,2 C13.4730239,1.65482203 13.7528459,1.375 14.0980239,1.375 Z" id="Rectangle-Copy" fill-rule="nonzero"/><path d="M11.0822585,2.98873658 C12.019965,2.61457941 12.6866317,2.61457941 13.0822585,2.98873658 C13.0241884,2.33708781 12.9951533,2.01126342 12.9951533,2.01126342 L11.0822585,2.01126342 L11.0822585,2.98873658 Z" id="Path-2"/><polygon id="Path-3" points="4.23948432 2.5 -9.89060421e-15 2.28173765 -9.89060421e-15 1.71349515 4.39934039 1.16932173"/></g></g></g></g></g></g></svg>