<svg viewBox="111.78750000000002 52.89893617021278 60.97500000000005 203.45744680851064" xmlns="http://www.w3.org/2000/svg" overflow="visible" xmlns:xlink="http://www.w3.org/1999/xlink" width="60.97500000000005px" height="203.45744680851064px"><g id="Master/Female Character/Standing" stroke="none" stroke-width="1" fill="none" fill-rule="evenodd"><g id="Female Standing Lower" transform="translate(114.000000, 118.000000) scale(1 1)"><g id="Female Standing Lower/Jeans 1" stroke="none" stroke-width="1" fill="none" fill-rule="evenodd"><g id="Group" transform="translate(0.000000, 2.000000)"><g id="Group-38"><path d="M29.0926,87.464 C29.4706,95.212 27.2026,106.834 24.2736,108.346 C24.2736,108.346 22.7616,86.33 23.0456,83.779 C23.3286,81.228 23.0096,76.315 23.0096,76.315 C23.0096,76.315 28.6196,64.787 29.7546,58.268 L32.6826,66.582 C32.6826,66.582 28.7146,79.716 29.0926,87.464 M53.1876,68.283 C55.2656,64.125 54.9346,61.669 54.9346,61.669 C51.2026,30.016 36.9356,8.094 36.9356,8.094 C36.9356,8.094 33.1556,1.291 24.5566,1.291 C15.9586,1.291 16.5256,8.756 16.5256,8.756 C14.1636,11.59 6.3676,18.299 3.0136,29.543 C0.0666,39.422 5.8006,64.787 5.9436,67.838 C6.0846,70.89 6.5806,90.086 11.5416,99.653 C16.5026,109.22 17.9436,118.361 18.2266,120.818 C18.5096,123.276 16.7146,127.102 17.8006,127.858 C18.8876,128.613 24.6986,132.96 25.5496,133.196 C26.3996,133.433 31.8326,134.235 33.2026,134.377 C34.5726,134.52 34.5256,132.772 33.2976,132.063 C32.0696,131.354 29.9896,130.456 28.8096,127.811 C27.6286,125.165 26.4936,120.582 25.7856,119.024 C25.0766,117.464 24.3676,113.968 24.3676,113.968 C25.5026,114.724 29.6596,122.708 29.6126,123.228 C29.5656,123.747 38.7306,124.739 38.7306,124.739 C39.0616,122.803 34.1956,120.96 34.1956,120.96 C34.5256,118.598 32.4936,110.52 32.4936,110.52 C32.4936,110.52 35.6126,101.354 38.0696,97.669 C40.5256,93.984 51.1086,72.441 53.1876,68.283" id="Fill-1" fill="#ffc280"/><path d="M18.0149,119.2979 C18.0149,119.2979 17.5319,122.9909 17.1539,124.5039 C16.7759,126.0159 16.1149,126.4869 17.1539,127.6689 C18.1929,128.8499 18.4299,130.8819 18.4299,130.8819 L19.1379,130.8819 L18.7129,128.8979 C18.7129,128.8979 21.5429,130.5979 23.0099,132.1569 C24.4769,133.7159 31.9409,134.8609 33.7839,134.5909 C35.6259,134.3199 36.3349,133.2429 30.2409,129.5119 C30.2409,129.5119 26.2719,130.3609 24.4299,132.0159 C24.4299,132.0159 20.2239,128.3779 18.9959,127.7159 C18.9959,127.7159 17.6269,125.2929 18.2409,121.8509 C18.2409,121.8509 18.7339,120.7529 18.0149,119.2979" id="Fill-3" fill="#FF1E5F"/><path d="M24.2874,113.5899 C24.2874,113.5899 28.6814,119.1649 29.8624,122.7079 C29.8624,122.7079 33.8164,120.6899 35.0874,121.3409 C35.0874,121.3409 39.1224,123.1809 39.1224,124.2199 C39.1224,125.2599 37.9884,125.0239 29.3424,123.7469 C29.3424,123.7469 26.8724,117.5749 24.7774,115.7719 L24.2874,113.5899 Z" id="Fill-5" fill="#FF1E5F"/><g id="Group-9" fill="#28445C"><path d="M15.593,6.7472 C15.593,6.7472 14.878,8.0232 15.248,9.5822 C15.248,9.5822 0.984,21.0672 0.193,35.3202 C-0.597,49.5742 4.256,65.0182 3.689,70.2412 C3.122,75.4642 5.768,87.9362 13.233,111.7472 C13.233,111.7472 16.823,114.0162 24.287,112.5042 C24.287,112.5042 25.233,83.1172 24.287,75.3692 C24.287,75.3692 28.654,66.5702 29.589,60.6302 L31.705,65.6382 C31.705,65.6382 27.626,76.4092 27.846,83.3072 C28.067,90.2042 25.044,98.2352 25.044,98.2352 C25.044,98.2352 31.185,102.9602 37.233,103.1492 C37.233,103.1492 52.267,75.4642 54.954,65.9212 C57.642,56.3782 48.287,19.5272 38.839,10.0782 C38.839,10.0782 38.32,6.6722 38.336,6.4832 C38.352,6.2952 37.918,6.0042 37.652,6.0012 C37.386,5.9972 36.473,2.0352 26.896,0.7242 C26.896,0.7242 17.41,-1.5758 15.593,6.7472" id="Fill-7"/></g><path d="M16.2088,10.2677 C17.1048,10.5727 17.9978,10.8657 18.9128,11.0837 C19.8168,11.3337 20.7318,11.5387 21.6518,11.7077 C23.4918,12.0387 25.3468,12.2517 27.2048,12.2747 C29.0658,12.3407 30.9168,12.1037 32.7378,11.7467 L34.0988,11.4277 L35.4218,10.9747 L36.0908,10.7567 L36.7308,10.4667 C37.1568,10.2697 37.5888,10.0807 38.0268,9.8947 C36.4558,10.9337 34.7388,11.8367 32.8768,12.3067 C31.0328,12.8097 29.1098,13.0747 27.1948,13.0237 C25.2818,12.9817 23.3748,12.7427 21.5288,12.2697 C19.6858,11.7977 17.8758,11.1707 16.2088,10.2677" id="Fill-10" fill="#121F2D"/><path d="M23.3426,7.8507 C23.6596,8.6527 23.7336,9.4707 23.7226,10.2887 C23.7056,10.6987 23.6706,11.1097 23.5726,11.5187 C23.4766,11.9127 23.3546,12.3697 23.0116,12.6637 C23.0826,12.2537 22.9876,11.8637 22.9896,11.4637 C22.9676,11.0667 22.9696,10.6677 22.9736,10.2687 C23.0086,9.4687 23.0706,8.6667 23.3426,7.8507" id="Fill-12" fill="#121F2D"/><path d="M25.1853,7.8507 C25.4853,8.6597 25.5393,9.4797 25.5103,10.2987 C25.4823,10.7077 25.4403,11.1177 25.3313,11.5237 C25.2283,11.9197 25.0853,12.3607 24.7603,12.6637 C24.8143,12.2467 24.7423,11.8557 24.7503,11.4557 C24.7383,11.0577 24.7473,10.6597 24.7623,10.2597 C24.8143,9.4607 24.8953,8.6617 25.1853,7.8507" id="Fill-14" fill="#121F2D"/><path d="M34.5867,6.7716 C34.9187,7.5116 35.0027,8.2756 35.0057,9.0406 C34.9937,9.4216 34.9637,9.8066 34.8767,10.1886 C34.7957,10.5656 34.6567,10.9606 34.3977,11.2796 C34.3757,10.8786 34.3097,10.5156 34.2937,10.1426 C34.2607,9.7716 34.2577,9.4016 34.2567,9.0296 C34.2767,8.2846 34.3297,7.5386 34.5867,6.7716" id="Fill-16" fill="#121F2D"/><path d="M35.5315,5.4952 C35.9635,6.3622 36.1535,7.2742 36.2605,8.1982 C36.3015,8.6622 36.3275,9.1282 36.2885,9.6002 C36.2535,10.0642 36.1855,10.5692 35.9205,10.9882 C35.8975,10.5132 35.7635,10.0802 35.7045,9.6272 C35.6255,9.1802 35.5675,8.7272 35.5155,8.2742 C35.4335,7.3652 35.3805,6.4502 35.5315,5.4952" id="Fill-18" fill="#121F2D"/><path d="M25.5159,12.6642 C25.1329,14.3332 24.5349,15.9462 23.8699,17.5292 C23.1679,19.0962 22.3659,20.6272 21.3929,22.0582 C20.4199,23.4882 19.2579,24.7942 17.9379,25.9382 C16.5809,27.0392 15.0409,27.9272 13.3619,28.4812 L12.8789,28.6422 L12.8819,28.1252 L12.8979,25.7642 L12.8999,25.5752 L13.0549,25.4692 C14.2059,24.6762 15.3129,23.7692 16.3619,22.8242 C17.3999,21.8642 18.4249,20.8822 19.3289,19.7942 C21.1379,17.6432 22.6679,15.1382 23.0119,12.2702 C22.9799,13.7062 22.5809,15.1182 22.0089,16.4422 C21.4319,17.7732 20.5989,18.9702 19.7309,20.1202 C18.8509,21.2682 17.8609,22.3252 16.8039,23.3062 C15.7429,24.2872 14.6459,25.2132 13.4539,26.0592 L13.6099,25.7642 L13.6259,28.1252 L13.1469,27.7692 C14.7189,27.2472 16.1899,26.4482 17.5009,25.4092 C18.7899,24.3392 19.8959,23.0642 20.9159,21.7212 C21.9219,20.3642 22.7729,18.8902 23.5319,17.3712 C24.3049,15.8562 24.9669,14.2822 25.5159,12.6642" id="Fill-20" fill="#121F2D"/><path d="M12.76,34.8341 C12.635,37.7051 12.56,40.5721 12.529,43.4381 C12.505,46.3061 12.467,49.1711 12.553,52.0361 C12.577,54.9011 12.676,57.7661 12.806,60.6291 C12.912,63.4951 13.112,66.3551 13.254,69.2281 C12.802,66.3901 12.457,63.5321 12.23,60.6651 C11.98,57.7991 11.887,54.9231 11.804,52.0481 C11.781,49.1721 11.808,46.2941 11.954,43.4211 C12.107,40.5491 12.326,37.6781 12.76,34.8341" id="Fill-22" fill="#121F2D"/><path d="M13.2542,74.6134 C13.5992,77.0264 13.9002,79.4384 14.2072,81.8504 L15.1212,89.0824 C15.4002,91.4964 15.7372,93.9004 16.0592,96.3084 C16.3882,98.7154 16.7462,101.1164 17.1072,103.5274 C16.4412,101.1814 15.9392,98.7944 15.4892,96.3994 C15.0482,94.0024 14.7162,91.5894 14.3782,89.1764 C14.1042,86.7564 13.8242,84.3374 13.6362,81.9094 C13.4472,79.4814 13.2912,77.0514 13.2542,74.6134" id="Fill-24" fill="#121F2D"/><path d="M11.3802,105.7462 C12.4412,105.9342 13.5012,105.9962 14.5552,106.0602 C15.6122,106.1082 16.6672,106.1212 17.7232,106.0972 C18.7802,106.0852 19.8362,106.0172 20.8972,105.9582 L24.0992,105.7462 C23.0772,106.0902 22.0302,106.3672 20.9642,106.5392 C19.9002,106.7202 18.8212,106.8202 17.7382,106.8472 C16.6552,106.8562 15.5692,106.8102 14.4962,106.6412 C13.4272,106.4752 12.3582,106.2132 11.3802,105.7462" id="Fill-26" fill="#121F2D"/><path d="M26.6907,92.6935 C28.7677,93.4715 30.7807,94.3155 32.8317,95.0555 C33.8547,95.4265 34.8817,95.7885 35.9257,96.0885 C36.9717,96.3805 38.0227,96.6605 39.1227,96.8185 C36.8947,97.0715 34.6517,96.4985 32.5747,95.7595 C30.4937,94.9835 28.4927,93.9935 26.6907,92.6935" id="Fill-28" fill="#121F2D"/><path d="M32.6829,66.5821 C33.9029,67.5011 34.9329,68.6021 35.8889,69.7661 C36.8079,70.9461 37.7249,72.1921 38.1779,73.6691 C37.7059,73.0721 37.2049,72.5241 36.7299,71.9521 C36.2449,71.3881 35.7789,70.8101 35.3049,70.2351 C34.3789,69.0691 33.4619,67.8941 32.6829,66.5821" id="Fill-30" fill="#121F2D"/><path d="M32.9065,64.3145 C34.1615,65.1025 35.2395,66.0955 36.2345,67.1675 C37.2025,68.2515 38.1355,69.4325 38.6495,70.8345 L35.6805,67.6725 C34.7185,66.5995 33.7525,65.5285 32.9065,64.3145" id="Fill-32" fill="#121F2D"/><path d="M32.201,9.8946 C32.201,10.5696 31.705,11.1176 31.094,11.1176 C30.482,11.1176 29.987,10.5696 29.987,9.8946 C29.987,9.2196 30.482,8.6716 31.094,8.6716 C31.705,8.6716 32.201,9.2196 32.201,9.8946" id="Fill-34" fill="#38628B"/><path d="M29.5887,58.4561 L30.9317,51.6041 C31.3677,49.3211 31.8447,47.0481 32.2187,44.7561 C32.6497,42.4751 33.0267,40.1841 33.3527,37.8871 C33.6797,35.5901 33.9547,33.2861 34.1247,30.9601 C34.2667,33.2911 34.1347,35.6311 33.9247,37.9551 C33.7157,40.2821 33.3307,42.5861 32.9567,44.8891 C32.5187,47.1801 32.0507,49.4651 31.4927,51.7281 C30.9307,53.9901 30.3267,56.2431 29.5887,58.4561" id="Fill-36" fill="#121F2D"/></g></g></g></g><g id="Female Top" transform="translate(86.000000, 76.000000) scale(1 1)"><g id="Female Top/Sweater 6" stroke="none" stroke-width="1" fill="none" fill-rule="evenodd"><g id="Group-112" transform="translate(28.000000, -0.000000)"><path d="M40.6809,58.1291 C38.4829,57.8701 35.4119,57.7971 35.1399,57.9091 C34.8689,58.0231 34.0319,58.0501 33.2429,57.9661 C32.4539,57.8811 29.7779,59.6851 27.7769,60.4381 C25.7769,61.1911 25.7239,60.8051 25.7239,60.8051 C20.6659,57.4151 12.4749,53.7121 12.4749,53.7121 L11.7449,37.1791 L15.6019,44.7691 L16.0039,50.0291 C20.8809,54.7541 37.4949,51.6501 37.4949,51.6501 L38.8189,44.6851 C38.8189,44.6851 39.6789,47.6951 40.6809,51.6501 C41.6829,55.6051 40.6809,58.1291 40.6809,58.1291 M44.4889,27.4581 C42.3809,22.8201 34.5799,15.8621 29.1339,11.8271 C29.1339,11.8271 30.4099,3.7501 27.2689,1.5991 C24.1279,-0.5539 22.9559,2.8231 22.9559,2.8231 C22.9559,2.8231 22.6079,9.7511 19.7759,11.7551 C16.9439,13.7601 4.0679,19.8491 2.4309,29.4621 C0.7939,39.0731 3.8449,57.6711 4.9749,58.4411 C6.1059,59.2101 23.1199,67.1601 28.1709,65.9451 C33.2229,64.7311 35.1399,63.1961 35.1399,63.1961 C35.1399,63.1961 33.5969,64.4231 34.1129,65.4681 C34.1129,65.4681 34.3849,65.6851 34.9409,65.4271 C34.9409,65.4271 34.8189,66.1741 35.1989,66.2141 C35.5789,66.2551 37.3849,63.6761 37.3849,63.6761 C37.3849,63.6761 36.0949,66.0921 36.8009,66.3911 C37.5069,66.6901 39.6239,63.3101 39.6239,63.3101 C39.6239,63.3101 39.7599,62.8481 40.0179,63.0521 C40.2759,63.2551 38.4759,65.6311 38.3239,65.9291 C38.1719,66.2281 38.2579,66.4721 38.8189,66.3101 C39.3799,66.1471 41.3209,64.3821 41.3209,64.3821 C41.3209,64.3821 42.4039,65.3551 43.7659,64.4541 C45.1289,63.5541 49.0169,58.5431 50.0209,54.2861 C51.0259,50.0291 46.5979,32.0971 44.4889,27.4581" id="Fill-86" fill="#ffc280"/><path d="M35.3718,59.2102 C36.7458,59.6372 38.0928,60.1122 39.4348,60.5962 L41.4628,61.3172 C41.8008,61.4442 42.1368,61.5752 42.4718,61.7282 C42.6388,61.8062 42.8058,61.8842 42.9728,61.9832 C43.0568,62.0342 43.1408,62.0872 43.2258,62.1582 C43.3038,62.2412 43.4238,62.2972 43.4628,62.5502 C43.4348,62.8412 43.3118,62.8802 43.2298,62.9692 C43.1388,63.0462 43.0438,63.0982 42.9488,63.1422 C42.7578,63.2272 42.5638,63.2822 42.3718,63.3092 C41.9868,63.3702 41.6078,63.3572 41.2378,63.3172 C40.4998,63.2322 39.7878,63.0232 39.1198,62.7682 C37.8418,62.2852 36.2768,62.2722 35.1408,63.1962 C35.6198,62.6512 36.3298,62.3432 37.0508,62.2112 C37.7828,62.1022 38.5348,62.1932 39.2398,62.4022 C39.9268,62.6012 40.5948,62.8082 41.2848,62.8642 C41.6258,62.8962 41.9688,62.8982 42.2898,62.8382 C42.4528,62.8142 42.6038,62.7632 42.7388,62.7002 C42.8048,62.6682 42.8668,62.6302 42.9118,62.5912 C42.9618,62.5692 42.9828,62.4682 42.9638,62.5752 C43.0058,62.6502 42.8478,62.4582 42.7198,62.4002 C42.5808,62.3142 42.4248,62.2352 42.2698,62.1592 C41.9558,62.0082 41.6278,61.8722 41.2988,61.7402 C40.6418,61.4712 39.9608,61.2582 39.3048,60.9562 C37.9818,60.3952 36.6638,59.8262 35.3718,59.2102" id="Fill-88" fill="#000"/><path d="M34.9407,65.427 C35.0737,64.815 35.3257,64.244 35.6077,63.69 C35.7687,63.421 35.9247,63.15 36.1277,62.906 C36.3287,62.671 36.5727,62.423 36.8867,62.359 C36.6137,62.509 36.4527,62.775 36.2827,63.021 C36.1207,63.275 35.9667,63.537 35.8277,63.809 C35.5247,64.339 35.2637,64.894 34.9407,65.427" id="Fill-90" fill="#000"/><path d="M37.3845,63.676 C37.3585,63.378 37.4575,63.098 37.5995,62.84 C37.6865,62.72 37.7735,62.596 37.9015,62.508 C38.0235,62.417 38.1765,62.363 38.3235,62.367 C37.8735,62.712 37.7175,63.193 37.3845,63.676" id="Fill-92" fill="#000"/><path d="M34.5833,58.2355 C35.4203,57.9055 36.3643,58.0325 37.2233,58.2255 C38.1013,58.4245 38.9143,58.7865 39.7163,59.1525 C40.5113,59.5395 41.2863,59.9715 42.0163,60.4615 C42.3913,60.7075 42.7243,60.9465 43.1273,61.1615 C43.2263,61.2315 43.3413,61.3375 43.3563,61.5015 C43.3693,61.6695 43.2483,61.7765 43.1543,61.8395 C42.9493,61.9685 42.7213,61.9965 42.5023,62.0065 C42.7113,61.9455 42.9243,61.8665 43.0733,61.7335 C43.2423,61.5865 43.1813,61.4475 43.0003,61.3715 C42.6083,61.2185 42.2003,60.9875 41.8203,60.7925 C41.0483,60.3825 40.2853,59.9725 39.5013,59.6025 C38.7183,59.2325 37.9293,58.8685 37.1193,58.5935 C36.3083,58.3365 35.4533,58.1125 34.5833,58.2355" id="Fill-94" fill="#000"/><path d="M39.365,58.1291 C40.154,58.1731 40.926,58.3391 41.681,58.5881 C42.04,58.7511 42.449,58.8511 42.717,59.2471 C42.863,59.6501 42.895,60.0401 42.842,60.4381 C42.808,60.0561 42.693,59.6531 42.548,59.3391 C42.351,59.0921 41.945,58.9481 41.596,58.8231 C40.873,58.5541 40.114,58.3741 39.365,58.1291" id="Fill-96" fill="#000"/><path d="M42.8455,59.7248 C43.3735,60.1328 43.8365,60.6108 44.3035,61.0808 C44.7505,61.5718 45.1875,62.0678 45.5625,62.6238 C45.0355,62.2088 44.5875,61.7198 44.1205,61.2518 C43.6765,60.7628 43.2275,60.2788 42.8455,59.7248" id="Fill-98" fill="#000"/><path d="M16.0042,14.0754 C16.0042,14.0754 25.7792,19.7154 33.9392,15.6644 C33.9392,15.6644 48.5712,18.8254 50.1612,52.2214 C50.1612,52.2214 45.2922,45.1304 40.9212,52.7754 C40.9212,52.7754 39.9702,51.3184 39.6832,49.0414 C39.3962,46.7644 38.8192,45.6184 38.8192,45.6184 L37.8542,51.6604 C37.8542,51.6604 22.5282,56.0124 15.4762,50.0294 C15.4762,50.0294 15.3472,45.3814 15.1752,44.7794 C15.0032,44.1774 12.6812,39.6624 12.4662,39.6624 C12.2522,39.6624 12.8592,53.8884 12.8592,53.8884 C12.8592,53.8884 7.1772,56.5244 5.5442,58.7574 C5.5442,58.7574 5.0702,59.7414 4.2532,58.1294 C3.4372,56.5174 -0.2348,41.8314 1.4082,32.6534 C3.0502,23.4744 6.6392,18.2034 16.0042,14.0754" id="Fill-100" fill="#FAB120"/><path d="M23.3933,33.5568 C17.1303,33.5568 13.1293,32.5618 12.6453,32.4348 C4.7763,33.3478 1.8933,30.3328 1.7743,30.2038 C1.6813,30.1028 1.6873,29.9458 1.7883,29.8518 C1.8903,29.7578 2.0483,29.7648 2.1413,29.8648 C2.1693,29.8938 5.0123,32.8308 12.6343,31.9328 C12.6653,31.9298 12.6983,31.9308 12.7303,31.9398 C12.7963,31.9578 19.4763,33.7808 29.6353,32.7318 C39.7683,31.6858 42.2093,30.7588 42.2333,30.7488 C42.2963,30.7328 44.6073,30.2268 45.7563,29.2988 C45.8643,29.2128 46.0213,29.2298 46.1083,29.3358 C46.1953,29.4438 46.1783,29.6008 46.0713,29.6878 C44.8283,30.6918 42.4773,31.2038 42.3783,31.2258 C42.3213,31.2518 39.9353,32.1708 29.6863,33.2298 C27.4043,33.4648 25.2943,33.5568 23.3933,33.5568" id="Fill-102" fill="#FEFDFA"/><path d="M24.1448,35.8186 C17.5068,35.8186 13.0478,35.1586 12.6038,35.0896 C5.6088,35.9476 1.4358,32.9836 1.2608,32.8556 C1.1498,32.7746 1.1248,32.6186 1.2058,32.5066 C1.2858,32.3946 1.4428,32.3696 1.5548,32.4516 C1.5958,32.4796 5.7648,35.4316 12.5778,34.5896 C12.6018,34.5886 12.6248,34.5876 12.6488,34.5906 C12.7238,34.6036 20.1318,35.7796 30.4818,35.1176 C40.7198,34.4626 42.3838,33.9006 42.4498,33.8776 C42.4918,33.8626 42.5408,33.8596 42.5838,33.8666 C42.6098,33.8726 45.3668,34.3816 46.9188,32.7166 C47.0128,32.6166 47.1718,32.6116 47.2718,32.7056 C47.3738,32.7986 47.3788,32.9576 47.2848,33.0586 C45.6628,34.7976 43.0108,34.4456 42.5528,34.3686 C42.1518,34.4856 39.9008,35.0156 30.5138,35.6156 C28.2338,35.7616 26.0948,35.8186 24.1448,35.8186" id="Fill-104" fill="#FEFDFA"/><path d="M26.8298,39.0939 C19.3668,39.0939 13.1308,38.2059 12.5998,38.1279 C3.3948,39.3319 0.9108,36.8429 0.8088,36.7379 C0.7138,36.6369 0.7178,36.4789 0.8178,36.3839 C0.9158,36.2869 1.0748,36.2899 1.1698,36.3919 C1.2118,36.4329 3.6778,38.7989 12.5688,37.6279 C12.5918,37.6249 12.6148,37.6249 12.6388,37.6289 C12.8098,37.6549 29.8828,40.1909 41.8898,36.9379 C41.9388,36.9239 41.9908,36.9269 42.0378,36.9429 C42.0718,36.9549 45.5158,38.1149 47.7668,35.7609 C47.8638,35.6609 48.0208,35.6589 48.1208,35.7529 C48.2198,35.8489 48.2238,36.0069 48.1278,36.1069 C45.8168,38.5239 42.5038,37.6149 41.9478,37.4399 C37.2358,38.7049 31.7638,39.0939 26.8298,39.0939" id="Fill-106" fill="#FEFDFA"/><path d="M12.4666,39.6623 C12.2006,37.1593 12.3236,34.6293 12.7366,32.1413 C12.9586,30.8993 13.2346,29.6603 13.6836,28.4723 C14.1186,27.2843 14.6956,26.1223 15.5236,25.1693 C14.9396,26.2853 14.5746,27.4653 14.2416,28.6483 C13.9176,29.8363 13.6796,31.0493 13.4746,32.2663 C13.2556,33.4833 13.0946,34.7133 12.9326,35.9443 L12.4666,39.6623 Z" id="Fill-108" fill="#D19219"/><path d="M38.8191,23.3264 C39.6731,25.0444 40.5371,26.7244 41.5591,28.3394 C42.5631,30.0164 43.0991,32.0014 43.0271,33.9814 C42.9871,34.9704 42.8091,35.9494 42.5091,36.8864 C42.2031,37.8294 41.7801,38.6964 41.3691,39.5514 C40.5521,41.2764 39.7231,42.9984 38.8191,44.6844 C39.4381,42.8724 40.1341,41.0944 40.8401,39.3214 C41.5901,37.5464 42.2461,35.8214 42.2781,33.9564 C42.3611,32.1154 41.8921,30.2764 41.0551,28.6144 C40.1371,26.9394 39.3811,25.1524 38.8191,23.3264" id="Fill-110" fill="#D19219"/></g></g></g><g id="Female Head" transform="translate(115.000000, 46.000000) scale(1 1)"><g id="Female Head/Long Hair 5" stroke="none" stroke-width="1" fill="none" fill-rule="evenodd"><g id="Group-186" transform="translate(8.000000, 8.000000)"><path d="M12.3001,24.0304 C12.3001,24.0304 13.4341,26.2984 15.9141,27.7864 C18.3941,29.2744 21.5121,31.5424 23.0711,31.0464 C24.6311,30.5504 28.7621,27.3844 29.7541,23.8414 C30.7461,20.2984 31.3631,14.3924 30.7251,11.4864 C30.0881,8.5814 26.4731,2.4864 20.0251,2.4864 C13.5751,2.4864 7.8361,9.2894 9.3941,16.8014 C9.3941,16.8014 7.6021,18.9994 9.1361,21.2664 C10.6701,23.5344 12.3001,24.0304 12.3001,24.0304" id="Fill-57" fill="#ffc280"/><path d="M16.1477,19.2823 C16.1477,19.2823 18.9947,19.3523 19.7507,19.9023 C19.7507,19.9023 20.0277,20.0003 19.9207,19.6363 C19.9207,19.6363 20.3287,19.9283 20.3557,19.7693 C20.3817,19.6093 20.1777,18.0683 18.5747,17.8553 C16.9717,17.6433 15.7667,19.1133 16.1477,19.2823" id="Fill-59" fill="#000"/><path d="M28.6204,18.8741 C28.6204,18.8741 26.8144,18.8481 26.0824,19.3961 C26.0824,19.3961 25.8144,19.4941 25.9164,19.1311 C25.9164,19.1311 25.5224,19.4231 25.4964,19.2641 C25.4714,19.1041 26.2054,17.6521 27.7584,17.4391 C29.3104,17.2271 29.7184,18.5851 28.6204,18.8741" id="Fill-61" fill="#000"/><path d="M23.8899,24.2247 C23.8899,24.2247 23.6769,24.4027 23.8899,24.5787 C24.1019,24.7567 25.5019,24.2607 25.8209,23.7997 C26.1399,23.3387 25.9509,23.2867 25.4959,23.5517 C25.0409,23.8177 23.8899,24.2247 23.8899,24.2247" id="Fill-63" fill="#000"/><path d="M21.0198,25.6602 C21.0198,25.6602 20.9318,25.5012 21.6928,25.5012 C22.4548,25.5012 22.3838,25.6422 23.6238,25.6602 C24.8638,25.6782 25.3718,25.6602 24.8878,25.9782 C24.4038,26.2982 24.4388,26.2802 24.3508,26.5282 C24.2618,26.7762 23.1408,27.2192 22.2568,26.9182 C21.3738,26.6162 20.4718,25.8172 21.0198,25.6602" id="Fill-65" fill="#EE4E2F"/><path d="M15.699,15.1007 C15.834,15.0587 15.652,15.3367 16.266,15.2307 C16.88,15.1247 18.557,14.9357 20.069,15.8807 C20.069,15.8807 20.339,15.6677 20.358,15.2667 C20.375,14.8907 17.829,13.6037 15.663,15.0307 C15.515,15.1277 15.561,15.1437 15.699,15.1007" id="Fill-67" fill="#000"/><path d="M28.6204,15.2423 C28.6204,15.2423 27.7224,14.2743 26.2104,14.7223 C24.6994,15.1723 24.8394,15.8563 24.8874,16.0463 C24.9354,16.2343 26.0214,15.3123 27.1554,15.3253 C28.2894,15.3373 28.6204,15.5733 28.6204,15.2423" id="Fill-69" fill="#000"/><path d="M5.0926,37.5304 C4.7386,36.1834 5.5536,35.2624 5.5536,35.2624 C5.5536,35.2624 5.7986,38.7704 6.6506,39.3734 C6.6506,39.3734 5.4466,38.8774 5.0926,37.5304 M3.8456,31.8474 C2.8106,31.1964 2.2586,29.2384 2.2586,29.2384 C4.1716,30.0894 5.0926,32.4994 5.0926,32.4994 C5.0926,32.4994 4.8806,32.4994 3.8456,31.8474 M13.7386,17.8354 C13.8806,15.6084 14.7306,15.3374 16.0766,14.0144 C17.4236,12.6914 18.7666,9.5734 18.7666,9.5734 C17.2586,8.4224 12.8706,5.1274 12.8706,5.1274 C11.5596,5.3214 9.1326,9.1484 9.1326,9.1484 C2.7186,13.5774 3.7816,20.4334 3.7816,20.4334 C1.6556,22.1344 1.0716,25.7494 1.0716,25.7494 C-1.4444,29.0094 1.6376,32.1444 3.0196,32.6584 C4.4016,33.1724 5.1636,34.1994 5.1636,34.1994 C1.7976,37.9554 4.5786,39.1954 7.0416,40.5244 C9.5046,41.8524 10.9686,44.8914 9.4746,46.2384 C7.9806,47.5864 6.4176,45.3624 6.2786,45.4104 C6.1396,45.4584 6.1876,46.0564 6.1876,46.0564 C7.0376,47.2984 8.5356,47.2184 8.5356,47.2184 C6.6066,48.1924 5.9366,46.3994 5.8186,46.4424 C5.7006,46.4854 5.8186,47.0624 5.8186,47.0624 C7.8506,49.1884 9.5336,47.6044 12.0846,44.2514 C14.6356,40.8964 11.7066,36.6444 11.7066,36.6444 C11.7066,36.6444 12.1326,34.3294 14.9196,32.7224 C17.7066,31.1164 17.8956,27.7624 16.2526,25.1644 C14.6096,22.5654 13.5966,20.0614 13.7386,17.8354" id="Fill-71" fill="#110b05"/><g id="Group-99" transform="translate(13.000000, 0.000000)" fill="#110b05"><path d="M24.4783,53.0851 C22.8483,54.0071 22.8843,53.4041 23.4513,51.9161 C24.0183,50.4281 22.9553,48.6561 22.9553,48.6561 C24.0693,48.9811 26.1083,52.1641 24.4783,53.0851 M22.8253,54.7151 C22.5653,54.7151 22.8253,54.2421 22.8253,54.2421 C22.8253,54.2421 23.3923,54.2671 23.7933,54.2421 C23.7933,54.2421 23.0843,54.7151 22.8253,54.7151 M20.3323,47.3511 C19.6953,46.8251 20.0843,45.5731 20.0843,45.5731 C20.0843,45.5731 19.9873,46.6461 21.1243,47.5231 C22.2613,48.3981 22.2813,49.7551 22.2813,49.7551 C21.9983,48.9751 20.9703,47.8771 20.3323,47.3511 M19.0923,36.2901 C17.8523,35.2271 17.8173,33.4901 17.8173,33.4901 C20.7583,39.2311 23.6033,36.0541 23.2973,39.8191 C23.1323,41.8441 21.5733,42.4201 21.5733,42.4201 C23.6633,39.5151 20.3323,37.3531 19.0923,36.2901 M26.2143,46.2111 C24.4783,44.7941 23.5923,45.8211 21.8773,45.3601 C20.1613,44.9001 21.0773,43.8731 21.0773,43.8731 C21.0773,43.8731 24.4073,42.5621 24.4363,38.4161 C24.4663,34.2711 20.4393,34.8731 20.0143,33.2711 C19.5883,31.6691 25.6123,29.4861 24.2303,25.8731 C22.8483,22.2591 20.6873,22.0471 20.6873,22.0471 C20.4743,21.4451 20.9703,20.9821 23.0613,19.0341 C25.1513,17.0851 19.5533,11.3451 19.5533,11.3451 C19.5533,11.3451 18.4903,8.2981 17.9853,6.8101 C17.4803,5.3211 15.0183,3.7271 15.0183,3.7271 C8.9943,-1.4109 4.4233,0.8561 4.4233,0.8561 C-0.1477,1.2261 0.1003,5.1271 0.1003,5.1271 C0.8803,5.5691 3.2183,7.0931 4.3883,8.0151 C5.5573,8.9361 5.9543,9.3591 5.9543,9.3591 C10.3483,4.9461 12.1243,8.9591 13.6123,12.5731 C15.1003,16.1881 17.2263,17.4171 17.2263,17.4171 C17.2263,17.4171 17.5103,21.7151 16.2393,24.9041 C14.9693,28.0931 10.9973,30.6091 9.9603,30.9511 C8.9243,31.2931 7.8533,30.6011 7.8533,30.6011 C7.1723,32.2571 7.8483,35.4631 9.5963,36.3851 C11.3443,37.3061 11.5983,38.7311 11.5983,38.7311 C10.7173,45.0221 12.1473,44.6051 14.0373,46.9901 C15.9273,49.3771 13.1403,51.6201 12.3363,51.6451 C11.5333,51.6681 11.5103,51.9511 11.5103,51.9511 C15.0063,52.0931 15.9743,48.8811 15.9743,48.8811 C20.4153,52.7311 13.3173,54.7151 14.5213,58.6121 C15.7263,62.5111 18.7383,62.8471 18.7383,62.6161 C18.7383,62.3871 17.9853,62.1911 17.9853,62.1911 C14.0933,60.2071 17.4983,57.0891 19.7663,56.7341 C22.0333,56.3811 22.1753,55.1761 22.1753,55.1761 C24.1953,55.3171 25.7893,53.0501 25.7893,53.0501 C28.6593,51.6331 27.9513,47.6291 26.2143,46.2111" id="Fill-97"/></g><g id="Group" transform="translate(1.428000, 0.358700)" fill="#6F3C00"><path d="M15.2515,8.0096 C14.5525,8.6346 13.9505,9.3436 13.4615,10.1156 C12.9815,10.8926 12.5785,11.7166 12.3535,12.5966 C12.1265,13.4706 11.9755,14.3756 12.0045,15.2926 C11.9915,16.2126 12.1515,17.1246 12.3005,18.0546 C12.1375,17.6156 11.9775,17.1706 11.8485,16.7156 C11.7725,16.2496 11.6325,15.7886 11.6205,15.3106 C11.4985,14.3596 11.6415,13.3906 11.8725,12.4606 C12.3905,10.6116 13.6185,8.9496 15.2515,8.0096" id="Fill-73"/><path d="M12.8775,6.8055 C12.1375,7.8075 11.5395,8.8985 11.1105,10.0455 C10.6845,11.1925 10.4085,12.3935 10.3675,13.6095 C10.3215,14.8185 10.4185,16.0475 10.7645,17.2235 C11.0535,18.4185 11.5925,19.5335 12.1335,20.6595 C11.7895,20.1425 11.4325,19.6235 11.1295,19.0745 C10.8785,18.4995 10.5595,17.9475 10.3965,17.3335 C9.9505,16.1445 9.8295,14.8505 9.8685,13.5835 C9.9245,12.3115 10.2305,11.0505 10.7565,9.9005 C11.2735,8.7465 11.9785,7.6755 12.8775,6.8055" id="Fill-75"/><path d="M11.7891,5.6355 C10.9901,6.6815 10.3441,7.8285 9.8761,9.0365 C9.4111,10.2425 9.1151,11.5175 9.1011,12.8035 C9.0581,14.0805 9.2041,15.3815 9.6281,16.6065 C9.7701,17.2425 10.0921,17.8155 10.3301,18.4225 C10.5971,19.0185 10.9541,19.5695 11.2471,20.1635 C10.8611,19.6335 10.4581,19.1025 10.1121,18.5365 C9.8251,17.9405 9.4571,17.3735 9.2641,16.7305 C8.7501,15.4895 8.5941,14.1225 8.6021,12.7845 C8.7011,10.0895 9.8951,7.4735 11.7891,5.6355" id="Fill-77"/><path d="M7.6333,9.3924 C7.2783,10.0414 6.9433,10.6954 6.6853,11.3764 C6.4103,12.0474 6.1893,12.7424 6.1093,13.4374 C6.0323,14.1274 6.0783,14.8284 6.4173,15.3654 C6.7423,15.8824 7.3273,16.4084 7.8533,16.8784 C8.9313,17.8534 10.0923,18.7644 11.1813,19.7714 C12.2283,20.7824 13.4593,21.8004 13.9163,23.2534 C13.5803,22.5924 13.0503,22.0834 12.5043,21.6034 C11.9683,21.1114 11.3903,20.6604 10.8103,20.2124 C9.6453,19.3194 8.4733,18.4264 7.3523,17.4364 C6.8023,16.9114 6.2493,16.4554 5.8003,15.7124 C5.3923,14.9604 5.3723,14.0934 5.5423,13.3434 C5.8793,11.8254 6.6773,10.5204 7.6333,9.3924" id="Fill-79"/><path d="M6.5684,11.1971 C5.4824,12.8811 4.9674,14.8651 5.0204,16.8011 C5.0734,17.7661 5.1654,18.7621 5.6194,19.5431 C6.0664,20.3291 6.8444,20.9171 7.6774,21.4101 C8.5084,21.9141 9.4044,22.3411 10.3054,22.7561 C11.1934,23.1611 12.1704,23.5791 12.9944,24.2011 C13.8284,24.8111 14.5524,25.5941 15.0284,26.5141 C15.4894,27.4331 15.7064,28.4901 15.5344,29.4821 C15.5434,27.4501 14.2864,25.6871 12.6654,24.6761 C11.8394,24.1621 10.9654,23.7881 10.0174,23.4051 C9.0934,23.0031 8.1764,22.5731 7.2894,22.0511 C6.4254,21.5201 5.5314,20.8661 4.9984,19.8851 C4.4874,18.8901 4.4154,17.8191 4.4424,16.8011 C4.5074,14.7461 5.2224,12.7021 6.5684,11.1971" id="Fill-81"/><path d="M8.1851,22.1111 C9.1101,23.5021 9.9721,25.0701 9.9231,26.8701 C9.9101,27.3191 9.7381,27.7721 9.4771,28.1541 C9.2071,28.5061 8.9041,28.8201 8.5881,29.1101 C7.9621,29.6931 7.2941,30.2121 6.7591,30.8171 C6.4991,31.1191 6.2731,31.4431 6.1781,31.7931 C6.0921,32.1431 6.1931,32.5011 6.3741,32.8321 C6.7831,33.4801 7.4961,33.9901 8.1131,34.5491 C8.7481,35.0981 9.4221,35.6031 10.0611,36.1721 C10.7081,36.7331 11.1971,37.5241 11.2831,38.3721 C11.0791,37.5411 10.5811,36.8451 9.9021,36.3571 C9.2471,35.8411 8.5441,35.3671 7.8721,34.8491 C7.2101,34.3241 6.5091,33.8361 5.9841,33.0661 C5.7511,32.6731 5.6001,32.1731 5.7121,31.6841 C5.8321,31.2101 6.1011,30.8271 6.3841,30.4881 C6.9811,29.8381 7.6661,29.3311 8.2821,28.7741 C8.5941,28.4991 8.8821,28.2081 9.1321,27.8941 C9.3411,27.5811 9.5061,27.2321 9.5421,26.8321 C9.6451,26.0411 9.4391,25.2081 9.1871,24.4211 C8.9321,23.6251 8.5791,22.8581 8.1851,22.1111" id="Fill-83"/><path d="M2.35347265,20.075 C2.5555,21.043 3.0585,21.909 3.7315,22.574 C4.4145,23.211 5.2935,23.722 6.0495,24.375 C6.8075,25.017 7.5575,25.755 7.9655,26.721 C8.1805,27.193 8.2485,27.734 8.1985,28.242 C8.1475,28.76 7.9065,29.222 7.6435,29.636 C8.0435,28.726 8.0775,27.707 7.6165,26.882 C7.1755,26.054 6.4735,25.374 5.7285,24.758 C5.0005,24.109 4.1535,23.614 3.4525,22.836 C2.7845,22.063 2.3495,21.074 2.35347265,20.075" id="Fill-85"/><path d="M3.419,22.5105 C3.998,23.3125 4.516,24.1575 4.964,25.0475 C5.188,25.4895 5.353,25.9865 5.493,26.4485 C5.646,26.9155 5.802,27.3885 5.935,27.8685 C6.211,28.8275 6.361,29.8405 6.298,30.8645 C6.257,31.3745 6.152,31.8845 5.97,32.3715 C5.75,32.8765 5.578,33.2405 5.528,33.7095 C5.412,34.6145 5.74,35.5575 6.26,36.3425 C6.776,37.1385 7.503,37.8035 8.326,38.2615 C8.531,38.3545 8.755,38.4625 9.002,38.5965 C9.222,38.7445 9.425,38.9155 9.593,39.1135 C9.931,39.5055 10.176,39.9555 10.373,40.4165 C10.739,41.3515 10.955,42.3285 11.038,43.3145 C10.844,42.3475 10.579,41.3905 10.149,40.5175 C9.722,39.6345 9.138,38.8745 8.156,38.6065 C7.224,38.1585 6.459,37.4375 5.881,36.5945 C5.311,35.7565 4.913,34.7225 5.032,33.6515 C5.084,33.1305 5.347,32.5915 5.526,32.1985 C5.696,31.7625 5.8,31.2995 5.846,30.8265 C5.925,29.8775 5.776,28.9125 5.564,27.9625 C5.456,27.4875 5.324,27.0145 5.192,26.5375 C5.068,26.0485 4.939,25.6015 4.742,25.1475 C4.376,24.2395 3.902,23.3715 3.419,22.5105" id="Fill-87"/><path d="M7.6118,38.0574 C8.1398,38.6784 8.5448,39.3944 8.8798,40.1414 C9.2128,40.8904 9.4508,41.6914 9.5458,42.5194 C9.6258,43.3474 9.5648,44.2034 9.2868,44.9954 C9.0078,45.7924 8.4838,46.4674 7.8698,46.9924 C8.3328,46.3234 8.7348,45.6424 8.9198,44.8824 C9.0908,44.1254 9.1328,43.3494 9.0488,42.5744 C8.9718,41.7974 8.7608,41.0354 8.5228,40.2804 C8.2708,39.5274 7.9648,38.7864 7.6118,38.0574" id="Fill-89"/><path d="M8.8817842e-15,23.9637 C0.57,25.3157 1.309,26.6047 2.312,27.5917 C2.575,27.8347 2.832,28.0277 3.133,28.2537 C3.444,28.4787 3.737,28.7337 4.008,29.0147 C4.55,29.5737 4.969,30.2967 5.143,31.0987 C5.286,31.9067 5.149,32.7597 4.789,33.4637 C4.453,34.1687 3.863,34.7767 3.461,35.2767 C3.066,35.8237 2.85,36.4997 2.989,37.1747 C3.089,37.8597 3.511,38.4887 4.019,39.0147 C3.401,38.6137 2.878,38.0137 2.632,37.2627 C2.387,36.5037 2.575,35.6377 2.976,34.9647 C3.42,34.2707 3.878,33.8117 4.146,33.1617 C4.436,32.5487 4.525,31.8787 4.407,31.2407 C4.28,30.6047 3.947,30.0007 3.485,29.4917 C3.26,29.2337 3.008,28.9917 2.733,28.7737 C2.453,28.5497 2.145,28.2737 1.897,27.9887 C0.893,26.8217 0.28,25.4137 8.8817842e-15,23.9637" id="Fill-91"/><path d="M9.7417,26.2185 C10.4127,26.4325 10.9897,26.9015 11.4357,27.4595 C11.8907,28.0205 12.1767,28.7035 12.3427,29.4005 C12.5137,30.1015 12.5027,30.8225 12.4387,31.5245 C12.3847,31.8725 12.3177,32.2185 12.2497,32.5605 C12.1377,32.8945 12.0417,33.2295 11.9157,33.5535 C11.9727,32.8555 12.0477,32.1785 12.0547,31.5005 C12.0267,30.8265 12.0247,30.1525 11.8547,29.5105 C11.5737,28.2235 10.8847,27.0195 9.7417,26.2185" id="Fill-93"/><path d="M9.2568,24.2576 C10.8698,24.6796 12.1928,25.9716 12.9498,27.4756 C13.2988,28.2446 13.5648,29.0596 13.6328,29.8956 C13.7028,30.3086 13.6628,30.7306 13.6698,31.1406 C13.6238,31.5536 13.5738,31.9636 13.4908,32.3636 C13.3638,31.5486 13.2498,30.7606 13.0568,29.9966 C12.8788,29.2306 12.6038,28.5026 12.2768,27.8056 C11.9438,27.1106 11.5068,26.4706 11.0068,25.8726 C10.4988,25.2836 9.9298,24.7256 9.2568,24.2576" id="Fill-95"/><path d="M15.96,7.656 C15.695,6.916 15.661,6.102 15.768,5.315 C15.868,4.522 16.15,3.757 16.54,3.057 C16.963,2.378 17.467,1.748 18.082,1.246 C18.376,0.981 18.717,0.775 19.03,0.543 C19.375,0.352 19.719,0.166 20.07,0 C19.468,0.5 18.867,0.973 18.345,1.526 C17.817,2.071 17.359,2.669 16.972,3.307 C16.235,4.603 15.841,6.102 15.96,7.656" id="Fill-102"/><path d="M17.791,8.7439 C17.368,7.4979 17.205,6.1059 17.6,4.7789 C17.97,3.4199 19.307,2.4399 20.656,2.2059 C20.999,2.1599 21.333,2.0879 21.686,2.0649 C22.045,2.0479 22.407,2.0909 22.759,2.1769 C23.464,2.3569 24.091,2.7569 24.601,3.2349 C25.619,4.2139 26.267,5.4399 26.809,6.6679 C27.824,9.1639 28.409,11.7669 28.989,14.3389 C29.133,14.9809 29.279,15.6239 29.458,16.2479 C29.632,16.8779 29.851,17.4789 30.3,17.8839 C30.717,18.3259 31.418,18.3219 31.992,18.0479 C32.58,17.7899 33.102,17.3659 33.57,16.9039 C33.161,17.4209 32.682,17.9039 32.079,18.2259 C31.52,18.5709 30.639,18.6749 30.065,18.1669 C29.489,17.7049 29.216,17.0139 29.007,16.3919 C28.788,15.7569 28.608,15.1169 28.43,14.4779 C27.733,11.9289 27.153,9.3469 26.12,6.9609 C25.622,5.7719 25.016,4.6049 24.131,3.7279 C23.687,3.2989 23.167,2.9609 22.591,2.8019 C22.019,2.6239 21.4,2.7019 20.764,2.7689 C19.524,2.9319 18.366,3.6889 17.944,4.9019 C17.464,6.0849 17.528,7.4619 17.791,8.7439" id="Fill-104"/><path d="M26.292,6.4158 C27.297,7.0428 27.996,8.0868 28.444,9.1858 C28.929,10.2938 28.994,11.5208 29.16,12.6478 C29.329,13.7868 29.526,14.9398 30.017,15.9448 C30.264,16.4408 30.637,16.8798 31.147,17.0868 C31.653,17.3158 32.252,17.2838 32.826,17.1848 C32.282,17.3918 31.664,17.4908 31.063,17.3158 C30.462,17.1328 29.992,16.6528 29.682,16.1338 C29.061,15.0718 28.851,13.8768 28.666,12.7198 C28.505,11.5418 28.461,10.3998 28.085,9.3168 C27.727,8.2418 27.161,7.2008 26.292,6.4158" id="Fill-106"/><path d="M18.6484,8.0096 C18.5524,7.3236 18.6274,6.6206 18.8134,5.9416 C18.9984,5.2616 19.3554,4.6076 19.8844,4.1006 C20.4144,3.6016 21.1154,3.2606 21.8314,3.2146 C22.1844,3.1436 22.5404,3.2126 22.8874,3.2146 C23.2314,3.2786 23.5684,3.3626 23.8974,3.4566 C23.2064,3.4556 22.5324,3.4286 21.8974,3.5936 C21.2584,3.7206 20.6804,4.0276 20.2274,4.4626 C19.7634,4.8926 19.4314,5.4596 19.1754,6.0656 C18.9284,6.6766 18.7584,7.3326 18.6484,8.0096" id="Fill-108"/><path d="M24.7007,3.8279 C24.9137,3.5829 25.2437,3.4419 25.5747,3.4089 C25.9077,3.3719 26.2437,3.4309 26.5557,3.5299 C26.8677,3.6409 27.1587,3.7899 27.4287,3.9709 C27.6967,4.1519 27.9367,4.3689 28.1597,4.5989 L27.3297,4.1359 C27.0507,3.9949 26.7727,3.8519 26.4777,3.7669 C26.1917,3.6549 25.8877,3.6059 25.5857,3.5999 C25.2857,3.5999 24.9717,3.6559 24.7007,3.8279" id="Fill-110"/><path d="M20.7158,7.076 C20.8308,6.13 21.4098,5.206 22.2928,4.736 C22.7368,4.523 23.2218,4.386 23.7108,4.385 C23.9538,4.37 24.1948,4.415 24.4338,4.429 L25.1328,4.599 C24.6558,4.557 24.1848,4.527 23.7228,4.577 C23.2588,4.616 22.8118,4.745 22.4098,4.957 C21.9968,5.154 21.6558,5.476 21.3718,5.839 C21.0918,6.205 20.8668,6.625 20.7158,7.076" id="Fill-112"/><path d="M21.023,7.0662 C21.501,6.2532 22.274,5.5892 23.198,5.2782 C23.662,5.1312 24.166,5.0982 24.64,5.1962 C25.123,5.2702 25.549,5.5142 25.94,5.7712 C25.503,5.5942 25.068,5.4212 24.611,5.3862 C24.161,5.3332 23.7,5.3622 23.273,5.5162 C22.838,5.6432 22.436,5.8702 22.061,6.1352 C21.69,6.4062 21.335,6.7122 21.023,7.0662" id="Fill-114"/><path d="M22.0078,7.3221 C22.3028,6.8861 22.7148,6.5101 23.2228,6.3031 C23.7268,6.0861 24.3188,6.0891 24.8368,6.2681 C25.3618,6.4501 25.7858,6.8081 26.1658,7.1791 C26.3348,7.3861 26.5178,7.5811 26.6718,7.7961 L27.0918,8.4681 C26.7488,8.0651 26.4078,7.6721 26.0308,7.3161 C25.6388,6.9881 25.2378,6.6491 24.7538,6.5041 C24.2868,6.3231 23.7678,6.3211 23.2898,6.4821 C22.8118,6.6411 22.3728,6.9451 22.0078,7.3221" id="Fill-116"/><path d="M28.9004,9.8631 C29.7744,10.1811 30.5814,10.6661 31.3324,11.2221 C32.0854,11.7801 32.7544,12.4541 33.3274,13.2051 C33.9024,13.9561 34.3224,14.8271 34.5834,15.7321 C34.8714,16.6371 34.8764,17.6011 34.7794,18.5151 C34.6674,17.5951 34.5674,16.6891 34.2174,15.8511 C33.8854,15.0191 33.4834,14.2111 32.9264,13.5031 C31.8484,12.0621 30.4484,10.8711 28.9004,9.8631" id="Fill-118"/><path d="M29.4663,12.2264 C30.1023,12.5884 30.6703,13.0554 31.2053,13.5554 C31.7403,14.0564 32.2203,14.6194 32.6423,15.2264 C33.0493,15.8424 33.4033,16.5014 33.6323,17.2094 C33.8483,17.9214 33.9493,18.6694 33.8613,19.3974 C33.7413,18.6744 33.5493,17.9954 33.2723,17.3454 C32.9723,16.7054 32.6283,16.0924 32.2293,15.5074 C31.4283,14.3374 30.4763,13.2744 29.4663,12.2264" id="Fill-120"/><path d="M28.8252,18.0545 C29.2792,18.7755 29.7682,19.4085 30.3182,20.0015 C30.8642,20.5985 31.4752,21.1185 32.1172,21.6885 C31.2882,21.4645 30.5452,20.9675 29.9512,20.3405 C29.6612,20.0205 29.4022,19.6685 29.2102,19.2815 C29.0162,18.8965 28.8582,18.4865 28.8252,18.0545" id="Fill-122"/><path d="M28.7485,20.075 C29.0515,20.959 29.6075,21.712 30.2565,22.337 C30.9095,22.964 31.6875,23.429 32.4855,23.917 C33.2585,24.41 34.1265,24.918 34.6645,25.766 C35.1965,26.605 35.3455,27.579 35.3505,28.509 C35.1425,27.601 34.8905,26.691 34.3495,25.987 C33.8085,25.287 33.0125,24.831 32.2225,24.342 C31.4415,23.85 30.6105,23.337 29.9805,22.601 C29.3515,21.887 28.8515,21.016 28.7485,20.075" id="Fill-124"/><path d="M28.5586,21.6883 C28.9856,22.4523 29.5876,23.0583 30.1976,23.6313 C30.8136,24.1943 31.5176,24.6813 32.1906,25.2513 C32.8506,25.8233 33.5206,26.4423 33.9806,27.2513 C34.4826,28.0363 34.5516,29.1073 34.1386,29.8853 C34.2546,29.0013 33.9906,28.2063 33.4896,27.5693 C32.9966,26.9243 32.3596,26.3713 31.7066,25.8233 C31.0686,25.2623 30.3586,24.7333 29.7786,24.0373 C29.2016,23.3613 28.7146,22.5623 28.5586,21.6883" id="Fill-126"/><path d="M27.4121,25.3767 C28.0881,25.5497 28.6991,25.9237 29.2461,26.3587 C29.8001,26.7947 30.2651,27.3337 30.6711,27.9067 C31.0511,28.4977 31.3851,29.1197 31.6051,29.7837 C31.7271,30.1107 31.8001,30.4537 31.8961,30.7857 C31.9561,31.1287 32.0141,31.4707 32.0491,31.8137 C31.7831,31.1727 31.5491,30.5367 31.2491,29.9317 C30.9551,29.3247 30.6271,28.7427 30.2571,28.1887 C29.5011,27.0937 28.5821,26.1057 27.4121,25.3767" id="Fill-128"/><path d="M26.7671,26.4705 C27.4601,26.4585 28.1231,26.8245 28.6361,27.2955 C29.1641,27.7675 29.5291,28.3865 29.8101,29.0185 C30.0731,29.6645 30.2741,30.2775 30.5191,30.9025 C30.6341,31.2145 30.7651,31.5205 30.9071,31.8195 C31.0431,32.1205 31.1841,32.4275 31.4141,32.6715 C30.8261,32.2935 30.5011,31.6455 30.1691,31.0625 C29.8401,30.4715 29.6041,29.8085 29.3511,29.2155 C29.0981,28.6175 28.7791,28.0505 28.3611,27.5625 C27.9431,27.0815 27.4161,26.6645 26.7671,26.4705" id="Fill-130"/><path d="M26.2354,27.2146 C27.2144,28.1836 28.0604,29.2876 28.7454,30.4976 C29.0974,31.0986 29.3884,31.7356 29.6484,32.3926 C29.8894,33.1036 30.0464,33.6306 30.4094,34.1346 C31.0734,35.1566 32.2324,35.7476 33.4714,36.2866 C33.7834,36.4386 34.1074,36.5526 34.4504,36.8316 C34.7174,37.0866 34.9574,37.3456 35.1674,37.6396 C35.5564,38.2326 35.8794,38.9196 35.8224,39.6206 C35.6544,38.9546 35.2694,38.3976 34.7974,37.9516 C34.5654,37.7276 34.3074,37.5186 34.0494,37.3416 C33.8374,37.2236 33.5084,37.1106 33.1914,37.0106 C32.5414,36.8106 31.8714,36.5576 31.2324,36.1996 C30.6014,35.8316 30.0184,35.3236 29.5844,34.6986 C29.1534,34.0856 28.9224,33.2836 28.7554,32.7016 C28.5644,32.0736 28.3064,31.4626 28.0494,30.8466 C27.5064,29.6266 26.9034,28.4136 26.2354,27.2146" id="Fill-132"/><path d="M26.2354,27.9236 C25.6714,29.3396 25.1914,30.7846 24.8664,32.2556 C24.5784,33.7106 24.3604,35.2716 24.8594,36.6276 C25.0614,37.3336 25.5794,37.8316 26.1664,38.2426 L28.1204,39.4156 C28.7634,39.8226 29.4464,40.1826 30.0184,40.7416 C30.2954,41.0276 30.4984,41.4046 30.5434,41.7976 C30.5954,42.1886 30.5404,42.5726 30.4714,42.9466 C30.4874,42.5666 30.4944,42.1826 30.4134,41.8216 C30.3324,41.4596 30.1234,41.1526 29.8474,40.9176 C29.2944,40.4406 28.5944,40.1136 27.9304,39.7506 C27.2534,39.4026 26.5914,39.0176 25.9314,38.6316 C25.2704,38.2036 24.6274,37.5896 24.3904,36.8006 C24.1344,36.0366 24.0544,35.2326 24.1164,34.4556 C24.1514,33.6746 24.2984,32.9106 24.4944,32.1656 C24.9054,30.6816 25.4844,29.2536 26.2354,27.9236" id="Fill-134"/><path d="M25.0498,30.8943 C25.1158,32.0403 25.2968,33.1683 25.6518,34.2043 C25.8438,34.7133 26.0698,35.2063 26.4028,35.6043 C26.7158,36.0273 27.1248,36.2743 27.6348,36.6053 C28.5768,37.2663 29.5258,37.9593 30.2838,38.8933 C30.6558,39.3573 30.9808,39.9023 31.0828,40.5133 C31.1758,41.1233 31.0568,41.7383 30.7708,42.2383 C30.9008,41.6763 30.9218,41.1053 30.7298,40.6033 C30.5628,40.0973 30.2208,39.6683 29.8468,39.2773 C29.0738,38.5043 28.1448,37.8593 27.2128,37.2243 C26.7718,36.9303 26.1908,36.5593 25.8358,36.0353 C25.4718,35.5243 25.2308,34.9543 25.0908,34.3733 C24.8008,33.2133 24.8248,32.0243 25.0498,30.8943" id="Fill-136"/><path d="M29.3892,33.5535 C29.4312,34.6095 29.8082,35.6235 30.3542,36.5015 C30.6182,36.9485 30.9642,37.3305 31.2632,37.7945 C31.5552,38.2515 31.7792,38.7705 31.8592,39.3255 C32.0352,40.4595 31.5602,41.5365 31.0542,42.4615 C30.5342,43.4065 29.8862,44.2515 29.3362,45.1325 C28.7602,45.9895 28.3272,46.9515 28.8172,47.8625 C29.2132,48.7745 30.0322,49.5105 30.5542,50.4625 C31.1052,51.3825 31.5022,52.4225 31.5722,53.5045 C31.6312,54.5905 31.2842,55.6575 30.7062,56.5355 C31.2152,55.6125 31.4652,54.5505 31.3282,53.5245 C31.2112,52.4985 30.7962,51.5275 30.2272,50.6655 C29.6882,49.7905 28.8882,49.0745 28.4022,48.0495 C28.1532,47.5515 28.0522,46.9225 28.2092,46.3595 C28.3512,45.7965 28.6332,45.3195 28.9142,44.8655 C29.4952,43.9645 30.1472,43.1385 30.6582,42.2395 C31.1702,41.3495 31.5802,40.3675 31.4792,39.3725 C31.4302,38.8795 31.2502,38.3995 30.9932,37.9575 C30.7432,37.5215 30.3922,37.1005 30.1432,36.6225 C29.6502,35.6725 29.3492,34.6115 29.3892,33.5535" id="Fill-138"/><path d="M31.5391,38.7459 C32.0881,39.3439 32.3831,40.1829 32.3421,41.0219 C32.2921,41.8739 31.8581,42.6389 31.4271,43.3169 C31.0021,44.0089 30.5071,44.6509 30.2171,45.3649 C29.9011,46.0649 29.8861,46.8499 30.3211,47.4509 C31.1671,48.6369 32.9091,49.4489 33.4201,51.1619 C33.8471,52.8609 33.2111,54.4639 32.6961,55.9709 C32.8721,55.1799 33.0681,54.3949 33.1661,53.5999 C33.2801,52.8119 33.3011,51.9999 33.0541,51.2779 C32.8011,50.5599 32.2781,49.9719 31.6851,49.4409 C31.1131,48.8899 30.4211,48.4589 29.9011,47.7219 C29.3741,46.9829 29.4271,45.9319 29.7991,45.1869 C30.1431,44.4089 30.6411,43.7549 31.1091,43.1029 C31.5751,42.4539 32.0041,41.7799 32.1001,40.9999 C32.2151,40.2279 31.9971,39.4099 31.5391,38.7459" id="Fill-140"/><path d="M28.3662,52.8894 C28.5612,53.7684 28.6062,54.6474 28.6162,55.5264 C28.6072,56.4064 28.5622,57.2854 28.3662,58.1634 C28.1702,57.2844 28.1252,56.4054 28.1162,55.5264 C28.1262,54.6474 28.1722,53.7684 28.3662,52.8894" id="Fill-142"/><path d="M26.5752,55.3904 C26.7542,56.0074 26.9002,56.5734 27.0992,57.1304 C27.1882,57.4114 27.2982,57.6844 27.4052,57.9634 C27.5092,58.2454 27.6472,58.5134 27.7592,58.8214 C27.2142,58.4694 26.8342,57.9004 26.6262,57.2914 C26.4272,56.6804 26.3632,56.0074 26.5752,55.3904" id="Fill-144"/><path d="M31.3379,43.868 C31.6699,44.406 32.0229,44.916 32.4069,45.395 C32.7959,45.88 33.1989,46.309 33.6499,46.759 C34.0719,47.215 34.5399,47.707 34.7569,48.36 C34.9709,49.009 34.9239,49.66 34.8229,50.282 C34.7189,49.659 34.6569,49.027 34.4009,48.503 C34.1429,47.985 33.7199,47.552 33.2889,47.103 C32.8609,46.661 32.4139,46.165 32.0939,45.615 C31.7609,45.07 31.4809,44.489 31.3379,43.868" id="Fill-146"/><path d="M33.0811,46.0652 C33.8651,45.8812 34.6971,45.9052 35.4991,46.1062 C36.3021,46.3032 37.0711,46.7742 37.5801,47.4632 C38.0811,48.1582 38.3291,48.9892 38.3831,49.8072 C38.3981,50.2152 38.3691,50.6242 38.3491,51.0262 C38.2661,51.4232 38.1991,51.8202 38.1011,52.2082 C38.0871,51.8032 38.1041,51.4082 38.1041,51.0142 C38.0731,50.6232 38.0601,50.2302 38.0001,49.8492 C37.8621,49.0912 37.6231,48.3622 37.1811,47.7652 C36.7481,47.1602 36.0991,46.7392 35.3841,46.4712 C34.6641,46.2122 33.8791,46.0862 33.0811,46.0652" id="Fill-148"/><path d="M34.5269,47.908 C35.4799,47.83 36.3929,48.39 37.0059,49.098 C37.3169,49.461 37.5519,49.876 37.7569,50.299 L38.0079,50.956 L38.1779,51.637 C37.8119,50.781 37.4149,49.944 36.8159,49.262 C36.5289,48.913 36.1869,48.613 35.8029,48.376 C35.4179,48.145 34.9899,47.96 34.5269,47.908" id="Fill-150"/><path d="M23.6406,29.6355 C23.2466,30.5125 22.9156,31.4115 22.7256,32.3385 C22.5166,33.2565 22.4216,34.2015 22.5436,35.1095 C22.6646,36.0145 22.9966,36.8775 23.5836,37.5505 C24.1386,38.2025 24.9696,38.7845 25.6536,39.4995 C27.0086,40.9105 28.0746,42.7895 28.1006,44.8205 C28.1246,45.8205 27.9366,46.8065 27.6126,47.7285 C27.2496,48.6385 26.7876,49.4935 26.2356,50.2815 C27.0676,48.5625 27.7086,46.7015 27.5246,44.8535 C27.3676,43.0105 26.4016,41.3505 25.1126,40.0185 C24.4836,39.3325 23.7076,38.8125 23.0306,37.9925 C22.3896,37.1885 22.0166,36.1705 21.9726,35.1655 C21.8656,33.1445 22.5936,31.2395 23.6406,29.6355" id="Fill-152"/><path d="M23.2236,39.6209 C23.5186,40.4899 23.9416,41.2969 24.4526,42.0309 C24.9876,42.7429 25.5526,43.5169 25.9516,44.3609 C26.3526,45.2059 26.6326,46.1379 26.6366,47.0889 C26.6466,48.0389 26.3916,48.9709 25.9396,49.7709 C26.2016,48.8909 26.3406,47.9909 26.2536,47.1079 C26.1616,46.2279 25.8936,45.3779 25.5006,44.5769 C25.1256,43.7589 24.6146,43.0399 24.1266,42.2389 C23.6616,41.4289 23.3156,40.5429 23.2236,39.6209" id="Fill-154"/></g></g></g></g><g id="Female Accesories" transform="translate(127.000000, 54.000000) scale(1 1)" fill="#000"><g id="Female Accesories/Glasses 1" stroke="none" stroke-width="1" fill="none" fill-rule="evenodd"><g id="Accesories" transform="translate(8.000000, 15.000000)" fill="#1E2214"><path d="M10.0980239,0.625 L5.09802389,0.625 C4.33863236,0.625 3.72302389,1.24060847 3.72302389,2 L3.72302389,5 C3.72302389,5.75939153 4.33863236,6.375 5.09802389,6.375 L10.0980239,6.375 C10.8574154,6.375 11.4730239,5.75939153 11.4730239,5 L11.4730239,2 C11.4730239,1.24060847 10.8574154,0.625 10.0980239,0.625 Z M5.09802389,1.375 L10.0980239,1.375 C10.4432019,1.375 10.7230239,1.65482203 10.7230239,2 L10.7230239,5 C10.7230239,5.34517797 10.4432019,5.625 10.0980239,5.625 L5.09802389,5.625 C4.75284592,5.625 4.47302389,5.34517797 4.47302389,5 L4.47302389,2 C4.47302389,1.65482203 4.75284592,1.375 5.09802389,1.375 Z" id="Rectangle" fill-rule="nonzero"/><path d="M18.0980239,0.625 L14.0980239,0.625 C13.3386324,0.625 12.7230239,1.24060847 12.7230239,2 L12.7230239,5 C12.7230239,5.75939153 13.3386324,6.375 14.0980239,6.375 L18.0980239,6.375 C18.8574154,6.375 19.4730239,5.75939153 19.4730239,5 L19.4730239,2 C19.4730239,1.24060847 18.8574154,0.625 18.0980239,0.625 Z M14.0980239,1.375 L18.0980239,1.375 C18.4432019,1.375 18.7230239,1.65482203 18.7230239,2 L18.7230239,5 C18.7230239,5.34517797 18.4432019,5.625 18.0980239,5.625 L14.0980239,5.625 C13.7528459,5.625 13.4730239,5.34517797 13.4730239,5 L13.4730239,2 C13.4730239,1.65482203 13.7528459,1.375 14.0980239,1.375 Z" id="Rectangle-Copy" fill-rule="nonzero"/><path d="M11.0822585,2.98873658 C12.019965,2.61457941 12.6866317,2.61457941 13.0822585,2.98873658 C13.0241884,2.33708781 12.9951533,2.01126342 12.9951533,2.01126342 L11.0822585,2.01126342 L11.0822585,2.98873658 Z" id="Path-2"/><polygon id="Path-3" points="4.23948432 2.5 -9.89060421e-15 2.28173765 -9.89060421e-15 1.71349515 4.39934039 1.16932173"/></g></g></g></g></svg>